<svg xmlns="http://www.w3.org/2000/svg" xmlns:xlink="http://www.w3.org/1999/xlink" width="1080" zoomAndPan="magnify" viewBox="0 0 810 809.999993" height="1080" preserveAspectRatio="xMidYMid meet" version="1.0"><defs><clipPath id="1155a47b69"><path d="M 534 104 L 710 104 L 710 293 L 534 293 Z M 534 104 " clip-rule="nonzero"/></clipPath><clipPath id="10de38e414"><path d="M 192.480469 -41.851562 L 787.132812 78.703125 L 617.257812 916.65625 L 22.605469 796.101562 Z M 192.480469 -41.851562 " clip-rule="nonzero"/></clipPath><clipPath id="8dda8022bb"><path d="M 192.480469 -41.851562 L 787.132812 78.703125 L 617.257812 916.65625 L 22.605469 796.101562 Z M 192.480469 -41.851562 " clip-rule="nonzero"/></clipPath><clipPath id="5c47638988"><path d="M 522 124 L 693 124 L 693 281 L 522 281 Z M 522 124 " clip-rule="nonzero"/></clipPath><clipPath id="712f4b7d42"><path d="M 192.480469 -41.851562 L 787.132812 78.703125 L 617.257812 916.65625 L 22.605469 796.101562 Z M 192.480469 -41.851562 " clip-rule="nonzero"/></clipPath><clipPath id="c5043abfb9"><path d="M 192.480469 -41.851562 L 787.132812 78.703125 L 617.257812 916.65625 L 22.605469 796.101562 Z M 192.480469 -41.851562 " clip-rule="nonzero"/></clipPath><clipPath id="f3ae45a253"><path d="M 475 204 L 614 204 L 614 355 L 475 355 Z M 475 204 " clip-rule="nonzero"/></clipPath><clipPath id="065ce57993"><path d="M 192.480469 -41.851562 L 787.132812 78.703125 L 617.257812 916.65625 L 22.605469 796.101562 Z M 192.480469 -41.851562 " clip-rule="nonzero"/></clipPath><clipPath id="738f69945b"><path d="M 192.480469 -41.851562 L 787.132812 78.703125 L 617.257812 916.65625 L 22.605469 796.101562 Z M 192.480469 -41.851562 " clip-rule="nonzero"/></clipPath><clipPath id="413b12b9a0"><path d="M 468 234 L 585 234 L 585 356 L 468 356 Z M 468 234 " clip-rule="nonzero"/></clipPath><clipPath id="79348959b4"><path d="M 192.480469 -41.851562 L 787.132812 78.703125 L 617.257812 916.65625 L 22.605469 796.101562 Z M 192.480469 -41.851562 " clip-rule="nonzero"/></clipPath><clipPath id="56bda48a24"><path d="M 192.480469 -41.851562 L 787.132812 78.703125 L 617.257812 916.65625 L 22.605469 796.101562 Z M 192.480469 -41.851562 " clip-rule="nonzero"/></clipPath><clipPath id="8c8995b2d3"><path d="M 414 315 L 519 315 L 519 405 L 414 405 Z M 414 315 " clip-rule="nonzero"/></clipPath><clipPath id="c529cbc574"><path d="M 192.480469 -41.851562 L 787.132812 78.703125 L 617.257812 916.65625 L 22.605469 796.101562 Z M 192.480469 -41.851562 " clip-rule="nonzero"/></clipPath><clipPath id="39ab9f679f"><path d="M 192.480469 -41.851562 L 787.132812 78.703125 L 617.257812 916.65625 L 22.605469 796.101562 Z M 192.480469 -41.851562 " clip-rule="nonzero"/></clipPath><clipPath id="e57380295c"><path d="M 422 294 L 521 294 L 521 364 L 422 364 Z M 422 294 " clip-rule="nonzero"/></clipPath><clipPath id="cf408ec8ff"><path d="M 192.480469 -41.851562 L 787.132812 78.703125 L 617.257812 916.65625 L 22.605469 796.101562 Z M 192.480469 -41.851562 " clip-rule="nonzero"/></clipPath><clipPath id="0ea22c8fbc"><path d="M 192.480469 -41.851562 L 787.132812 78.703125 L 617.257812 916.65625 L 22.605469 796.101562 Z M 192.480469 -41.851562 " clip-rule="nonzero"/></clipPath><clipPath id="ebee060a8c"><path d="M 388 359 L 584 359 L 584 478 L 388 478 Z M 388 359 " clip-rule="nonzero"/></clipPath><clipPath id="363332632a"><path d="M 192.480469 -41.851562 L 787.132812 78.703125 L 617.257812 916.65625 L 22.605469 796.101562 Z M 192.480469 -41.851562 " clip-rule="nonzero"/></clipPath><clipPath id="3019e4f04b"><path d="M 192.480469 -41.851562 L 787.132812 78.703125 L 617.257812 916.65625 L 22.605469 796.101562 Z M 192.480469 -41.851562 " clip-rule="nonzero"/></clipPath><clipPath id="a4837e6613"><path d="M 58 479 L 448 479 L 448 786 L 58 786 Z M 58 479 " clip-rule="nonzero"/></clipPath><clipPath id="916c0ff0fe"><path d="M 192.480469 -41.851562 L 787.132812 78.703125 L 617.257812 916.65625 L 22.605469 796.101562 Z M 192.480469 -41.851562 " clip-rule="nonzero"/></clipPath><clipPath id="ffb8379d0c"><path d="M 192.480469 -41.851562 L 787.132812 78.703125 L 617.257812 916.65625 L 22.605469 796.101562 Z M 192.480469 -41.851562 " clip-rule="nonzero"/></clipPath><clipPath id="04d269da71"><path d="M 619 292 L 690 292 L 690 337 L 619 337 Z M 619 292 " clip-rule="nonzero"/></clipPath><clipPath id="7fd89c74c9"><path d="M 192.480469 -41.851562 L 787.132812 78.703125 L 617.257812 916.65625 L 22.605469 796.101562 Z M 192.480469 -41.851562 " clip-rule="nonzero"/></clipPath><clipPath id="0d7320b64f"><path d="M 192.480469 -41.851562 L 787.132812 78.703125 L 617.257812 916.65625 L 22.605469 796.101562 Z M 192.480469 -41.851562 " clip-rule="nonzero"/></clipPath><clipPath id="8c2af3dd31"><path d="M 546 52 L 759 52 L 759 265 L 546 265 Z M 546 52 " clip-rule="nonzero"/></clipPath><clipPath id="7fa88c9a85"><path d="M 192.480469 -41.851562 L 787.132812 78.703125 L 617.257812 916.65625 L 22.605469 796.101562 Z M 192.480469 -41.851562 " clip-rule="nonzero"/></clipPath><clipPath id="c919dd21e7"><path d="M 192.480469 -41.851562 L 787.132812 78.703125 L 617.257812 916.65625 L 22.605469 796.101562 Z M 192.480469 -41.851562 " clip-rule="nonzero"/></clipPath><clipPath id="820116ee7b"><path d="M 559.671875 32.589844 L 778.148438 76.882812 L 739.15625 269.21875 L 520.679688 224.929688 Z M 559.671875 32.589844 " clip-rule="nonzero"/></clipPath><clipPath id="b784a707f5"><path d="M 481 124 L 527 124 L 527 202 L 481 202 Z M 481 124 " clip-rule="nonzero"/></clipPath><clipPath id="115f23b0b7"><path d="M 192.480469 -41.851562 L 787.132812 78.703125 L 617.257812 916.65625 L 22.605469 796.101562 Z M 192.480469 -41.851562 " clip-rule="nonzero"/></clipPath><clipPath id="8b7de12a5e"><path d="M 192.480469 -41.851562 L 787.132812 78.703125 L 617.257812 916.65625 L 22.605469 796.101562 Z M 192.480469 -41.851562 " clip-rule="nonzero"/></clipPath><clipPath id="875283f9de"><path d="M 528 101 L 538 101 L 538 114 L 528 114 Z M 528 101 " clip-rule="nonzero"/></clipPath><clipPath id="8f682843da"><path d="M 192.480469 -41.851562 L 787.132812 78.703125 L 617.257812 916.65625 L 22.605469 796.101562 Z M 192.480469 -41.851562 " clip-rule="nonzero"/></clipPath><clipPath id="9ccb30e439"><path d="M 192.480469 -41.851562 L 787.132812 78.703125 L 617.257812 916.65625 L 22.605469 796.101562 Z M 192.480469 -41.851562 " clip-rule="nonzero"/></clipPath><clipPath id="54c23384d8"><path d="M 468 199 L 478 199 L 478 227 L 468 227 Z M 468 199 " clip-rule="nonzero"/></clipPath><clipPath id="1c8f0e76c1"><path d="M 192.480469 -41.851562 L 787.132812 78.703125 L 617.257812 916.65625 L 22.605469 796.101562 Z M 192.480469 -41.851562 " clip-rule="nonzero"/></clipPath><clipPath id="1a79d9b212"><path d="M 192.480469 -41.851562 L 787.132812 78.703125 L 617.257812 916.65625 L 22.605469 796.101562 Z M 192.480469 -41.851562 " clip-rule="nonzero"/></clipPath><clipPath id="56961b9916"><path d="M 347 234 L 466 234 L 466 370 L 347 370 Z M 347 234 " clip-rule="nonzero"/></clipPath><clipPath id="61ab33e5bc"><path d="M 192.480469 -41.851562 L 787.132812 78.703125 L 617.257812 916.65625 L 22.605469 796.101562 Z M 192.480469 -41.851562 " clip-rule="nonzero"/></clipPath><clipPath id="9992f22ae7"><path d="M 192.480469 -41.851562 L 787.132812 78.703125 L 617.257812 916.65625 L 22.605469 796.101562 Z M 192.480469 -41.851562 " clip-rule="nonzero"/></clipPath><clipPath id="3a45a62d20"><path d="M 41 370 L 351 370 L 351 703 L 41 703 Z M 41 370 " clip-rule="nonzero"/></clipPath><clipPath id="e95a6f0410"><path d="M 192.480469 -41.851562 L 787.132812 78.703125 L 617.257812 916.65625 L 22.605469 796.101562 Z M 192.480469 -41.851562 " clip-rule="nonzero"/></clipPath><clipPath id="ce3c2b875f"><path d="M 192.480469 -41.851562 L 787.132812 78.703125 L 617.257812 916.65625 L 22.605469 796.101562 Z M 192.480469 -41.851562 " clip-rule="nonzero"/></clipPath><clipPath id="3cc66f22cf"><path d="M 667 117 L 718 117 L 718 225 L 667 225 Z M 667 117 " clip-rule="nonzero"/></clipPath><clipPath id="5ac1bbcf1f"><path d="M 192.480469 -41.851562 L 787.132812 78.703125 L 617.257812 916.65625 L 22.605469 796.101562 Z M 192.480469 -41.851562 " clip-rule="nonzero"/></clipPath><clipPath id="5bc6a2b333"><path d="M 192.480469 -41.851562 L 787.132812 78.703125 L 617.257812 916.65625 L 22.605469 796.101562 Z M 192.480469 -41.851562 " clip-rule="nonzero"/></clipPath><clipPath id="a4450211f3"><path d="M 685 117 L 730 117 L 730 214 L 685 214 Z M 685 117 " clip-rule="nonzero"/></clipPath><clipPath id="a3d3832354"><path d="M 192.480469 -41.851562 L 787.132812 78.703125 L 617.257812 916.65625 L 22.605469 796.101562 Z M 192.480469 -41.851562 " clip-rule="nonzero"/></clipPath><clipPath id="58b01b657d"><path d="M 192.480469 -41.851562 L 787.132812 78.703125 L 617.257812 916.65625 L 22.605469 796.101562 Z M 192.480469 -41.851562 " clip-rule="nonzero"/></clipPath><clipPath id="614e1844ad"><path d="M 711 124 L 739 124 L 739 205 L 711 205 Z M 711 124 " clip-rule="nonzero"/></clipPath><clipPath id="5c8470ff99"><path d="M 192.480469 -41.851562 L 787.132812 78.703125 L 617.257812 916.65625 L 22.605469 796.101562 Z M 192.480469 -41.851562 " clip-rule="nonzero"/></clipPath><clipPath id="66a047114f"><path d="M 192.480469 -41.851562 L 787.132812 78.703125 L 617.257812 916.65625 L 22.605469 796.101562 Z M 192.480469 -41.851562 " clip-rule="nonzero"/></clipPath><clipPath id="b89d4446ce"><path d="M 725 131 L 744 131 L 744 203 L 725 203 Z M 725 131 " clip-rule="nonzero"/></clipPath><clipPath id="840c7c40f7"><path d="M 192.480469 -41.851562 L 787.132812 78.703125 L 617.257812 916.65625 L 22.605469 796.101562 Z M 192.480469 -41.851562 " clip-rule="nonzero"/></clipPath><clipPath id="890d0007ea"><path d="M 192.480469 -41.851562 L 787.132812 78.703125 L 617.257812 916.65625 L 22.605469 796.101562 Z M 192.480469 -41.851562 " clip-rule="nonzero"/></clipPath><clipPath id="a9a514033c"><path d="M 672 123 L 718 123 L 718 162 L 672 162 Z M 672 123 " clip-rule="nonzero"/></clipPath><clipPath id="226e7f1472"><path d="M 192.480469 -41.851562 L 787.132812 78.703125 L 617.257812 916.65625 L 22.605469 796.101562 Z M 192.480469 -41.851562 " clip-rule="nonzero"/></clipPath><clipPath id="cfa28729ec"><path d="M 192.480469 -41.851562 L 787.132812 78.703125 L 617.257812 916.65625 L 22.605469 796.101562 Z M 192.480469 -41.851562 " clip-rule="nonzero"/></clipPath><clipPath id="c366c514ce"><path d="M 683 128 L 728 128 L 728 171 L 683 171 Z M 683 128 " clip-rule="nonzero"/></clipPath><clipPath id="3dfc9d036b"><path d="M 192.480469 -41.851562 L 787.132812 78.703125 L 617.257812 916.65625 L 22.605469 796.101562 Z M 192.480469 -41.851562 " clip-rule="nonzero"/></clipPath><clipPath id="5a41329bf2"><path d="M 192.480469 -41.851562 L 787.132812 78.703125 L 617.257812 916.65625 L 22.605469 796.101562 Z M 192.480469 -41.851562 " clip-rule="nonzero"/></clipPath><clipPath id="82367ac2bf"><path d="M 679 146 L 734 146 L 734 186 L 679 186 Z M 679 146 " clip-rule="nonzero"/></clipPath><clipPath id="8eb9b202d2"><path d="M 192.480469 -41.851562 L 787.132812 78.703125 L 617.257812 916.65625 L 22.605469 796.101562 Z M 192.480469 -41.851562 " clip-rule="nonzero"/></clipPath><clipPath id="46b78a9124"><path d="M 192.480469 -41.851562 L 787.132812 78.703125 L 617.257812 916.65625 L 22.605469 796.101562 Z M 192.480469 -41.851562 " clip-rule="nonzero"/></clipPath><clipPath id="14128eeb38"><path d="M 668 117 L 699 117 L 699 152 L 668 152 Z M 668 117 " clip-rule="nonzero"/></clipPath><clipPath id="7261888f2f"><path d="M 192.480469 -41.851562 L 787.132812 78.703125 L 617.257812 916.65625 L 22.605469 796.101562 Z M 192.480469 -41.851562 " clip-rule="nonzero"/></clipPath><clipPath id="5e275126bb"><path d="M 192.480469 -41.851562 L 787.132812 78.703125 L 617.257812 916.65625 L 22.605469 796.101562 Z M 192.480469 -41.851562 " clip-rule="nonzero"/></clipPath><clipPath id="c1fd9bf18f"><path d="M 641 120 L 706 120 L 706 192 L 641 192 Z M 641 120 " clip-rule="nonzero"/></clipPath><clipPath id="027e325832"><path d="M 192.480469 -41.851562 L 787.132812 78.703125 L 617.257812 916.65625 L 22.605469 796.101562 Z M 192.480469 -41.851562 " clip-rule="nonzero"/></clipPath><clipPath id="b737eae0d0"><path d="M 192.480469 -41.851562 L 787.132812 78.703125 L 617.257812 916.65625 L 22.605469 796.101562 Z M 192.480469 -41.851562 " clip-rule="nonzero"/></clipPath><clipPath id="406555e49c"><path d="M 623 124 L 687 124 L 687 181 L 623 181 Z M 623 124 " clip-rule="nonzero"/></clipPath><clipPath id="9f1d81a8f9"><path d="M 192.480469 -41.851562 L 787.132812 78.703125 L 617.257812 916.65625 L 22.605469 796.101562 Z M 192.480469 -41.851562 " clip-rule="nonzero"/></clipPath><clipPath id="fe52767fdb"><path d="M 192.480469 -41.851562 L 787.132812 78.703125 L 617.257812 916.65625 L 22.605469 796.101562 Z M 192.480469 -41.851562 " clip-rule="nonzero"/></clipPath><clipPath id="1630c44615"><path d="M 644 124 L 675 124 L 675 158 L 644 158 Z M 644 124 " clip-rule="nonzero"/></clipPath><clipPath id="0e7c07369b"><path d="M 192.480469 -41.851562 L 787.132812 78.703125 L 617.257812 916.65625 L 22.605469 796.101562 Z M 192.480469 -41.851562 " clip-rule="nonzero"/></clipPath><clipPath id="91e0dd26a3"><path d="M 192.480469 -41.851562 L 787.132812 78.703125 L 617.257812 916.65625 L 22.605469 796.101562 Z M 192.480469 -41.851562 " clip-rule="nonzero"/></clipPath><clipPath id="1ad66d7c63"><path d="M 644 114 L 672 114 L 672 144 L 644 144 Z M 644 114 " clip-rule="nonzero"/></clipPath><clipPath id="939e3ec9b3"><path d="M 192.480469 -41.851562 L 787.132812 78.703125 L 617.257812 916.65625 L 22.605469 796.101562 Z M 192.480469 -41.851562 " clip-rule="nonzero"/></clipPath><clipPath id="70e5afbaf9"><path d="M 192.480469 -41.851562 L 787.132812 78.703125 L 617.257812 916.65625 L 22.605469 796.101562 Z M 192.480469 -41.851562 " clip-rule="nonzero"/></clipPath><clipPath id="090414e047"><path d="M 616 136 L 675 136 L 675 168 L 616 168 Z M 616 136 " clip-rule="nonzero"/></clipPath><clipPath id="3be1c85888"><path d="M 192.480469 -41.851562 L 787.132812 78.703125 L 617.257812 916.65625 L 22.605469 796.101562 Z M 192.480469 -41.851562 " clip-rule="nonzero"/></clipPath><clipPath id="1c78d1b309"><path d="M 192.480469 -41.851562 L 787.132812 78.703125 L 617.257812 916.65625 L 22.605469 796.101562 Z M 192.480469 -41.851562 " clip-rule="nonzero"/></clipPath><clipPath id="b485cb213a"><path d="M 714 157 L 742 157 L 742 181 L 714 181 Z M 714 157 " clip-rule="nonzero"/></clipPath><clipPath id="9385f20b0e"><path d="M 192.480469 -41.851562 L 787.132812 78.703125 L 617.257812 916.65625 L 22.605469 796.101562 Z M 192.480469 -41.851562 " clip-rule="nonzero"/></clipPath><clipPath id="557de4e3ec"><path d="M 192.480469 -41.851562 L 787.132812 78.703125 L 617.257812 916.65625 L 22.605469 796.101562 Z M 192.480469 -41.851562 " clip-rule="nonzero"/></clipPath><clipPath id="d4a7d84dd5"><path d="M 719 161 L 753 161 L 753 195 L 719 195 Z M 719 161 " clip-rule="nonzero"/></clipPath><clipPath id="60cdcb7b18"><path d="M 192.480469 -41.851562 L 787.132812 78.703125 L 617.257812 916.65625 L 22.605469 796.101562 Z M 192.480469 -41.851562 " clip-rule="nonzero"/></clipPath><clipPath id="ca47294a6d"><path d="M 192.480469 -41.851562 L 787.132812 78.703125 L 617.257812 916.65625 L 22.605469 796.101562 Z M 192.480469 -41.851562 " clip-rule="nonzero"/></clipPath></defs><g clip-path="url(#1155a47b69)"><g clip-path="url(#10de38e414)"><g clip-path="url(#8dda8022bb)"><path fill="#3d5d7d" d="M 703.839844 278.027344 C 703.847656 278.125 703.851562 278.226562 703.859375 278.324219 C 703.851562 278.226562 703.847656 278.125 703.839844 278.027344 Z M 627.335938 151.675781 C 603.320312 127.113281 571.746094 101.6875 534.613281 104.246094 C 540.480469 105.585938 546.871094 108.398438 552.941406 111.535156 C 552.851562 111.492188 552.761719 111.441406 552.675781 111.394531 C 609.421875 136.617188 650.457031 187.289062 684.847656 238.03125 C 694.621094 257.234375 705.507812 269.96875 703.136719 281.5 C 703.175781 283.839844 689.765625 296.03125 696.40625 291.648438 C 746.5625 278.390625 640.878906 165.1875 627.335938 151.675781 " fill-opacity="1" fill-rule="nonzero"/></g></g></g><g clip-path="url(#5c47638988)"><g clip-path="url(#712f4b7d42)"><g clip-path="url(#c5043abfb9)"><path fill="#3d5d7d" d="M 622.042969 173.527344 C 596.996094 149.882812 553.925781 117.835938 522.953125 125.839844 C 547.105469 131.445312 566.101562 144.117188 587.230469 157.039062 C 631.371094 188.828125 666.09375 233.273438 692.761719 280.992188 C 686.816406 239.535156 640.984375 192.328125 622.042969 173.527344 " fill-opacity="1" fill-rule="nonzero"/></g></g></g><g clip-path="url(#f3ae45a253)"><g clip-path="url(#065ce57993)"><g clip-path="url(#738f69945b)"><path fill="#3d5d7d" d="M 596.613281 352.050781 C 596.597656 352.066406 596.574219 352.089844 596.558594 352.101562 C 596.574219 352.089844 596.558594 352.101562 596.613281 352.050781 Z M 603.726562 344.296875 C 603.6875 344.355469 603.652344 344.40625 603.613281 344.460938 C 603.652344 344.40625 603.613281 344.460938 603.726562 344.296875 Z M 541.21875 234.863281 C 520.199219 215.207031 495.839844 201.84375 475.140625 205.144531 C 531.910156 224.359375 592.566406 299.285156 606.671875 339.171875 C 600.53125 352.523438 585.226562 358.25 599.316406 352.566406 C 599.226562 352.609375 599.148438 352.652344 599.058594 352.691406 C 639.34375 340.484375 583.742188 280.371094 570.71875 265.714844 C 570.996094 266.035156 571.273438 266.359375 571.546875 266.6875 C 562.289062 255.726562 552.351562 244.921875 541.21875 234.863281 " fill-opacity="1" fill-rule="nonzero"/></g></g></g><g clip-path="url(#413b12b9a0)"><g clip-path="url(#79348959b4)"><g clip-path="url(#56bda48a24)"><path fill="#3d5d7d" d="M 532.972656 270.625 C 511.976562 249.601562 491.976562 233.664062 468.957031 234.910156 C 518.59375 258.84375 554.578125 303.382812 581.988281 350.355469 C 583.015625 351.804688 585.167969 358.25 584.527344 354.542969 C 578.289062 321.078125 557.425781 293.84375 532.972656 270.625 " fill-opacity="1" fill-rule="nonzero"/></g></g></g><g clip-path="url(#8c8995b2d3)"><g clip-path="url(#c529cbc574)"><g clip-path="url(#39ab9f679f)"><path fill="#3d5d7d" d="M 417.605469 378.296875 C 417.613281 378.324219 417.621094 378.347656 417.628906 378.375 C 417.613281 378.339844 417.609375 378.3125 417.59375 378.28125 C 417.597656 378.289062 417.59375 378.28125 417.605469 378.296875 Z M 417.238281 377.316406 C 417.242188 377.351562 417.257812 377.386719 417.273438 377.421875 C 417.257812 377.386719 417.242188 377.351562 417.238281 377.316406 Z M 518.160156 315.585938 C 512.03125 339.109375 489.15625 352.207031 475.433594 371.820312 C 468.878906 378.601562 463.410156 388.261719 454.070312 392.890625 C 441.488281 392.539062 421.789062 393.871094 417.628906 378.375 C 417.65625 378.453125 417.6875 378.53125 417.71875 378.609375 C 417.683594 378.519531 417.710938 378.589844 417.578125 378.234375 C 417.582031 378.246094 417.589844 378.269531 417.59375 378.28125 C 417.199219 377.222656 416.738281 375.980469 416.058594 374.152344 C 416.0625 374.167969 416.066406 374.179688 416.070312 374.1875 C 415.820312 373.519531 415.566406 372.851562 415.320312 372.183594 C 415.332031 372.21875 415.34375 372.257812 415.363281 372.296875 C 415.1875 371.828125 415.011719 371.363281 414.839844 370.894531 C 414.839844 370.914062 414.851562 370.9375 414.859375 370.953125 C 413.539062 371.050781 414.296875 390.203125 420.390625 394.152344 C 430.097656 402.207031 451.535156 408.050781 461.15625 401.910156 C 519.609375 341.640625 518.835938 333.339844 518.160156 315.585938 " fill-opacity="1" fill-rule="nonzero"/></g></g></g><g clip-path="url(#e57380295c)"><g clip-path="url(#cf408ec8ff)"><g clip-path="url(#0ea22c8fbc)"><path fill="#3d5d7d" d="M 513.195312 304.128906 C 513.125 304.101562 513.066406 304.070312 513.007812 304.042969 C 513.066406 304.070312 513.007812 304.042969 513.195312 304.128906 Z M 513.902344 300.730469 C 485.597656 275.605469 431.421875 339.878906 425.066406 358.054688 C 425.105469 357.957031 425.152344 357.859375 425.191406 357.757812 C 424.5625 359.15625 423.441406 361.472656 422.402344 363.699219 C 426.195312 360.394531 429.480469 356.554688 433.632812 352.433594 C 478.597656 310.398438 493.984375 293.546875 514.914062 305.042969 C 517.230469 306.394531 518.480469 307.421875 520.761719 309.625 C 519.234375 306.429688 517.253906 303.386719 513.902344 300.730469 " fill-opacity="1" fill-rule="nonzero"/></g></g></g><g clip-path="url(#ebee060a8c)"><g clip-path="url(#363332632a)"><g clip-path="url(#3019e4f04b)"><path fill="#3d5d7d" d="M 463.101562 465.144531 C 463.070312 465.128906 463.101562 465.144531 462.996094 465.109375 C 463.03125 465.121094 462.996094 465.109375 463.101562 465.144531 Z M 583.109375 359.8125 C 533.535156 381.339844 500.308594 426.542969 461.839844 463.421875 C 446.445312 433.265625 422.269531 403.394531 388.113281 392.90625 C 392.101562 395.804688 397.019531 399.554688 400.925781 403.101562 C 500.324219 499.792969 408.882812 511.0625 560.160156 381.871094 C 559.894531 382.121094 559.628906 382.375 559.363281 382.625 C 566.9375 375.476562 575.355469 368.007812 583.109375 359.8125 " fill-opacity="1" fill-rule="nonzero"/></g></g></g><g clip-path="url(#a4837e6613)"><g clip-path="url(#916c0ff0fe)"><g clip-path="url(#ffb8379d0c)"><path fill="#3d5d7d" d="M 71.636719 734.230469 C 71.574219 734.183594 71.511719 734.136719 71.445312 734.09375 C 71.511719 734.136719 71.445312 734.09375 71.636719 734.230469 Z M 447.261719 479.613281 C 429.550781 490.558594 413.703125 504.597656 398.519531 519.8125 C 355.214844 565.550781 311.75 609.316406 263.808594 650.699219 C 96.457031 811.058594 132.765625 773.472656 97.695312 754.382812 C 98.070312 754.667969 98.453125 754.960938 98.828125 755.253906 C 50.144531 717.941406 57.535156 718.71875 59.96875 726.027344 C 71.03125 747.550781 89.636719 762.09375 108.199219 777.296875 C 126.035156 791.425781 131.984375 786.257812 146.046875 772.351562 C 179.347656 742.210938 212.492188 713.046875 244.402344 681.195312 C 346.375 586.601562 435.484375 502.171875 447.261719 479.613281 " fill-opacity="1" fill-rule="nonzero"/></g></g></g><g clip-path="url(#04d269da71)"><g clip-path="url(#7fd89c74c9)"><g clip-path="url(#0d7320b64f)"><path fill="#3d5d7d" d="M 671.554688 306.003906 C 671.394531 306.089844 671.222656 306.171875 671.054688 306.257812 C 671.222656 306.171875 671.054688 306.257812 671.554688 306.003906 Z M 689.230469 292.582031 C 685.21875 295.574219 680.421875 298.992188 676.28125 303.011719 C 676.324219 302.972656 676.371094 302.929688 676.410156 302.890625 C 668.992188 308.460938 658.988281 311.289062 649.949219 315.769531 C 639.859375 320.984375 632.683594 334.144531 619.578125 334.910156 C 634.035156 340.496094 646.578125 326.976562 660.285156 322.398438 C 677.351562 314.703125 681.65625 307.335938 689.230469 292.582031 " fill-opacity="1" fill-rule="nonzero"/></g></g></g><g clip-path="url(#8c2af3dd31)"><g clip-path="url(#7fa88c9a85)"><g clip-path="url(#c919dd21e7)"><g clip-path="url(#820116ee7b)"><path fill="#3d5d7d" d="M 735.109375 101.246094 C 735.164062 101.316406 735.207031 101.382812 735.257812 101.460938 C 735.046875 101.148438 734.832031 100.832031 734.617188 100.527344 C 734.789062 100.765625 734.617188 100.527344 735.109375 101.246094 Z M 735.414062 101.6875 C 735.367188 101.613281 735.308594 101.535156 735.257812 101.460938 C 735.308594 101.535156 735.257812 101.460938 735.414062 101.6875 Z M 712.363281 78.320312 C 669.003906 41.273438 628.550781 49.1875 582.410156 68.039062 C 568.976562 75.75 555.621094 92.90625 546.660156 98.96875 C 562.472656 95.777344 572.972656 84.292969 587.710938 77.378906 C 651.058594 51.089844 685.320312 61.855469 724.691406 105.199219 C 768.015625 158.9375 739.871094 207.003906 718.359375 260.777344 C 717.671875 262.847656 714.570312 265.945312 718.488281 262.648438 C 740.425781 240.929688 751.820312 211.742188 756.832031 181.3125 C 764.125 142.0625 744.027344 101.84375 712.363281 78.320312 " fill-opacity="1" fill-rule="nonzero"/></g></g></g></g><g clip-path="url(#b784a707f5)"><g clip-path="url(#115f23b0b7)"><g clip-path="url(#8b7de12a5e)"><path fill="#3d5d7d" d="M 526.738281 124.261719 C 502.851562 142.191406 480.007812 169.722656 481.222656 201.894531 C 491.085938 173.546875 513.722656 151.890625 526.738281 124.261719 " fill-opacity="1" fill-rule="nonzero"/></g></g></g><g clip-path="url(#875283f9de)"><g clip-path="url(#8f682843da)"><g clip-path="url(#9ccb30e439)"><path fill="#3d5d7d" d="M 537.507812 101.898438 C 526.96875 108.589844 525.25 121.90625 534.746094 107.359375 C 534.6875 107.460938 534.613281 107.5625 534.546875 107.660156 C 535.382812 106.386719 536.632812 104.1875 537.507812 101.898438 " fill-opacity="1" fill-rule="nonzero"/></g></g></g><g clip-path="url(#54c23384d8)"><g clip-path="url(#1c8f0e76c1)"><g clip-path="url(#1a79d9b212)"><path fill="#3d5d7d" d="M 477.0625 199.5 C 471.925781 207.136719 467.519531 215.984375 469.203125 226.335938 C 472.78125 218.4375 477.902344 209.355469 477.0625 199.5 " fill-opacity="1" fill-rule="nonzero"/></g></g></g><g clip-path="url(#56961b9916)"><g clip-path="url(#61ab33e5bc)"><g clip-path="url(#9992f22ae7)"><path fill="#3d5d7d" d="M 465.671875 234.644531 C 453.921875 246.171875 440.132812 256.117188 429.699219 270.191406 C 386.847656 325.605469 375.195312 328.164062 347.996094 369.078125 C 396.320312 336.464844 447.734375 261.648438 465.671875 234.644531 " fill-opacity="1" fill-rule="nonzero"/></g></g></g><g clip-path="url(#3a45a62d20)"><g clip-path="url(#e95a6f0410)"><g clip-path="url(#ce3c2b875f)"><path fill="#3d5d7d" d="M 45.3125 699.539062 C 45.261719 699.582031 45.214844 699.621094 45.167969 699.664062 C 45.214844 699.621094 45.167969 699.664062 45.3125 699.539062 Z M 350.785156 370.945312 C 299.140625 408.636719 198.9375 522.898438 187.738281 532.972656 C 135.050781 586.425781 46.925781 678.273438 41.804688 702.894531 C 57.167969 689.320312 71.375 676.476562 84.046875 660.039062 C 143.628906 587.007812 168.582031 567.753906 192.441406 541.75 C 277.433594 448.125 317.628906 416.707031 350.785156 370.945312 " fill-opacity="1" fill-rule="nonzero"/></g></g></g><g clip-path="url(#3cc66f22cf)"><g clip-path="url(#5ac1bbcf1f)"><g clip-path="url(#5bc6a2b333)"><path fill="#3d5d7d" d="M 674.105469 121.019531 C 674.074219 121.019531 674.035156 121.011719 674.003906 121.007812 C 674.035156 121.011719 674.003906 121.007812 674.105469 121.019531 Z M 685.203125 124.585938 C 679.890625 120.1875 672.933594 122.78125 667.003906 117.792969 C 667.804688 118.867188 668.1875 119.878906 670.195312 121.542969 C 696.023438 131.847656 673.121094 133.695312 696.871094 146.828125 C 702.582031 157.941406 695.203125 156.347656 706.824219 171.332031 C 701.617188 206.835938 710.566406 180.78125 711.636719 211.554688 C 711.476562 213.066406 716.570312 216.980469 713.757812 224.058594 C 717.121094 220.035156 716.511719 217.171875 715.253906 209.835938 C 715.710938 206.808594 718.386719 204.976562 716.808594 199.753906 C 714.628906 190.253906 709.109375 190.882812 712.914062 178.957031 C 716.835938 157.382812 706.957031 173.5 704.632812 147.480469 C 703.53125 139.785156 694.667969 139.945312 690.691406 133.78125 C 689.632812 130.90625 688.582031 127.203125 685.203125 124.585938 " fill-opacity="1" fill-rule="nonzero"/></g></g></g><g clip-path="url(#a4450211f3)"><g clip-path="url(#a3d3832354)"><g clip-path="url(#58b01b657d)"><path fill="#3d5d7d" d="M 699.199219 123.367188 C 696.648438 122.535156 678.980469 113.410156 687.859375 119.707031 C 699.566406 129.757812 695.332031 121.503906 700.769531 137.152344 C 721.945312 153.910156 699.390625 152.289062 721.445312 175.109375 C 724.917969 182.027344 717.496094 197.566406 727.082031 212.117188 C 728.890625 217.886719 724.628906 195.875 726.039062 192.71875 C 726.851562 186.925781 732.171875 179.804688 727.316406 172.316406 C 706.292969 150.433594 728.398438 147.65625 705.871094 133.949219 C 703.105469 131.960938 704.746094 126.59375 699.199219 123.367188 " fill-opacity="1" fill-rule="nonzero"/></g></g></g><g clip-path="url(#614e1844ad)"><g clip-path="url(#5c8470ff99)"><g clip-path="url(#66a047114f)"><path fill="#3d5d7d" d="M 734.320312 197.445312 C 734.324219 197.472656 734.316406 197.503906 734.3125 197.53125 C 734.316406 197.503906 734.324219 197.472656 734.320312 197.445312 Z M 711.238281 124.234375 C 719.519531 131.070312 708.816406 139.769531 723.429688 154.984375 C 723.085938 163.605469 723.070312 172.449219 731.511719 181.832031 C 731.484375 181.800781 731.460938 181.761719 731.441406 181.730469 C 737.039062 187.96875 729.742188 196.605469 734.179688 204.445312 C 734.164062 204 734.167969 203.714844 734.15625 202.351562 C 735.097656 184.246094 745.078125 197.300781 729.890625 165.378906 C 730.765625 152.054688 731.703125 154.664062 720.683594 142.578125 C 717.527344 136.566406 719.304688 127.410156 711.238281 124.234375 " fill-opacity="1" fill-rule="nonzero"/></g></g></g><g clip-path="url(#b89d4446ce)"><g clip-path="url(#840c7c40f7)"><g clip-path="url(#890d0007ea)"><path fill="#3d5d7d" d="M 731.105469 145.511719 C 731.144531 145.613281 731.183594 145.710938 731.222656 145.8125 C 731.183594 145.710938 731.144531 145.613281 731.105469 145.511719 Z M 725.589844 131.097656 C 729.804688 165.816406 728.414062 143.882812 735.613281 164.042969 C 735.605469 164.007812 735.605469 163.972656 735.601562 163.941406 C 732.199219 192.25 740.570312 174.046875 739.964844 202.207031 C 748.105469 179.386719 738.074219 193.066406 741.898438 163.046875 C 741.769531 154.773438 733.042969 152.53125 730.867188 144.617188 C 729.460938 139.972656 729.375 135.375 725.589844 131.097656 " fill-opacity="1" fill-rule="nonzero"/></g></g></g><g clip-path="url(#a9a514033c)"><g clip-path="url(#226e7f1472)"><g clip-path="url(#cfa28729ec)"><path fill="#3d5d7d" d="M 711.839844 128.136719 C 711.785156 128.171875 711.738281 128.210938 711.691406 128.246094 C 711.738281 128.210938 711.691406 128.246094 711.839844 128.136719 Z M 717.628906 123.402344 C 702.269531 135.050781 687.476562 148.320312 672.316406 161.496094 C 688.816406 154.226562 709.292969 139.734375 717.628906 123.402344 " fill-opacity="1" fill-rule="nonzero"/></g></g></g><g clip-path="url(#c366c514ce)"><g clip-path="url(#3dfc9d036b)"><g clip-path="url(#5a41329bf2)"><path fill="#3d5d7d" d="M 700.953125 151.941406 C 700.882812 152.039062 700.804688 152.128906 700.726562 152.222656 C 700.804688 152.128906 700.726562 152.222656 700.953125 151.941406 Z M 727.746094 128.359375 C 716.039062 137.179688 704.464844 146.945312 694.539062 158.941406 C 657.296875 194.367188 728.453125 137.46875 727.746094 128.359375 " fill-opacity="1" fill-rule="nonzero"/></g></g></g><g clip-path="url(#82367ac2bf)"><g clip-path="url(#8eb9b202d2)"><g clip-path="url(#46b78a9124)"><path fill="#3d5d7d" d="M 733.023438 146.03125 C 714.890625 158.191406 699.160156 173.925781 679.152344 185.027344 C 700.410156 178.253906 720.277344 165.847656 733.023438 146.03125 " fill-opacity="1" fill-rule="nonzero"/></g></g></g><g clip-path="url(#14128eeb38)"><g clip-path="url(#7261888f2f)"><g clip-path="url(#5e275126bb)"><path fill="#3d5d7d" d="M 698.894531 117.933594 C 688.570312 128.410156 676.992188 138.523438 668.980469 151.855469 C 679.875 142.085938 694.457031 133.410156 698.894531 117.933594 " fill-opacity="1" fill-rule="nonzero"/></g></g></g><g clip-path="url(#c1fd9bf18f)"><g clip-path="url(#027e325832)"><g clip-path="url(#b737eae0d0)"><path fill="#3d5d7d" d="M 662.648438 131.667969 C 662.78125 131.851562 662.921875 132.035156 663.054688 132.226562 C 662.921875 132.035156 662.78125 131.851562 662.648438 131.667969 Z M 678.03125 135.179688 C 648.589844 113.585938 658.929688 125.160156 641.148438 120.207031 C 645.082031 127.078125 655.867188 121.089844 662.574219 131.566406 C 662.527344 131.503906 662.484375 131.4375 662.4375 131.375 C 669.519531 141.40625 674.011719 134.515625 681.605469 154.027344 C 703.058594 164.066406 685.191406 179.597656 705.234375 191.359375 C 689.71875 176.402344 710.203125 161.046875 686.75 149.179688 C 685.347656 148.699219 684.132812 138.878906 678.03125 135.179688 " fill-opacity="1" fill-rule="nonzero"/></g></g></g><g clip-path="url(#406555e49c)"><g clip-path="url(#9f1d81a8f9)"><g clip-path="url(#fe52767fdb)"><path fill="#3d5d7d" d="M 625.636719 125.390625 C 625.613281 125.378906 625.597656 125.363281 625.582031 125.347656 C 625.597656 125.363281 625.582031 125.347656 625.636719 125.390625 Z M 667.878906 141.191406 C 664.011719 137.832031 657.832031 138.105469 653.085938 134.800781 C 639.511719 121.777344 634.796875 131.960938 623.960938 124.257812 C 626.730469 131.929688 635.335938 129.332031 641.5625 133.242188 C 647.871094 136.792969 648.882812 142.988281 660.105469 144.527344 C 668.160156 146.421875 665.441406 152.503906 671.722656 157.945312 C 683.867188 163.246094 680.027344 172.617188 686.273438 180.199219 C 686.277344 180.214844 686.28125 180.222656 686.28125 180.226562 C 683.539062 172.613281 688.105469 160.484375 674.71875 151.914062 C 673.1875 149.878906 673.015625 144.46875 667.878906 141.191406 " fill-opacity="1" fill-rule="nonzero"/></g></g></g><g clip-path="url(#1630c44615)"><g clip-path="url(#0e7c07369b)"><g clip-path="url(#91e0dd26a3)"><path fill="#3d5d7d" d="M 674.945312 124.957031 C 664.363281 134.914062 652.976562 144.871094 644.375 157.699219 C 655.546875 148.59375 669.976562 140.035156 674.945312 124.957031 " fill-opacity="1" fill-rule="nonzero"/></g></g></g><g clip-path="url(#1ad66d7c63)"><g clip-path="url(#939e3ec9b3)"><g clip-path="url(#70e5afbaf9)"><path fill="#3d5d7d" d="M 671.546875 114.074219 C 662.535156 122.875 651.238281 131.199219 644.46875 143.007812 C 645.8125 141.953125 646.660156 141.328125 648.882812 139.621094 C 658.539062 133.257812 667.640625 126.136719 671.546875 114.074219 " fill-opacity="1" fill-rule="nonzero"/></g></g></g><g clip-path="url(#090414e047)"><g clip-path="url(#3be1c85888)"><g clip-path="url(#1c78d1b309)"><path fill="#3d5d7d" d="M 655.480469 149.800781 C 637.113281 143.066406 639.539062 131.285156 618.109375 139.609375 C 618.160156 139.613281 618.210938 139.617188 618.269531 139.621094 C 618.195312 139.574219 617.675781 139.691406 617.15625 139.269531 C 617.179688 139.296875 617.207031 139.328125 617.226562 139.351562 C 617.144531 139.148438 616.941406 139.261719 616.730469 138.269531 C 616.734375 138.285156 616.738281 138.296875 616.734375 138.3125 C 616.703125 138.113281 616.667969 137.929688 616.632812 137.738281 C 616.632812 137.746094 616.632812 137.746094 616.632812 137.75 C 615.003906 144.585938 627.332031 137.5625 634.046875 142.992188 C 639.796875 148.769531 646.027344 154.117188 655.085938 156.050781 C 661 160.832031 665.835938 166.425781 674.308594 167.53125 C 666.003906 164.09375 663.480469 154.5 655.480469 149.800781 " fill-opacity="1" fill-rule="nonzero"/></g></g></g><g clip-path="url(#b485cb213a)"><g clip-path="url(#9385f20b0e)"><g clip-path="url(#557de4e3ec)"><path fill="#3d5d7d" d="M 741.464844 157.707031 C 735.429688 167.625 721.480469 170.011719 714.871094 180.460938 C 724.15625 174.511719 740.375 172.007812 741.464844 157.707031 " fill-opacity="1" fill-rule="nonzero"/></g></g></g><g clip-path="url(#d4a7d84dd5)"><g clip-path="url(#60cdcb7b18)"><g clip-path="url(#ca47294a6d)"><path fill="#3d5d7d" d="M 752.34375 161.847656 C 748.84375 170.398438 730.300781 173.738281 719.972656 194.792969 C 728.019531 185.894531 752.425781 174.621094 752.34375 161.847656 " fill-opacity="1" fill-rule="nonzero"/></g></g></g></svg>