<svg xmlns="http://www.w3.org/2000/svg" xmlns:xlink="http://www.w3.org/1999/xlink" width="1080" zoomAndPan="magnify" viewBox="0 0 810 809.999993" height="1080" preserveAspectRatio="xMidYMid meet" version="1.0"><defs><clipPath id="d97343978a"><path d="M 534 104 L 710 104 L 710 293 L 534 293 Z M 534 104 " clip-rule="nonzero"/></clipPath><clipPath id="92d91ed01f"><path d="M 192.480469 -41.851562 L 787.132812 78.703125 L 617.257812 916.65625 L 22.605469 796.101562 Z M 192.480469 -41.851562 " clip-rule="nonzero"/></clipPath><clipPath id="8e8c7894ee"><path d="M 192.480469 -41.851562 L 787.132812 78.703125 L 617.257812 916.65625 L 22.605469 796.101562 Z M 192.480469 -41.851562 " clip-rule="nonzero"/></clipPath><clipPath id="f2d7650f81"><path d="M 192.480469 -41.851562 L 787.132812 78.703125 L 617.257812 916.65625 L 22.605469 796.101562 Z M 192.480469 -41.851562 " clip-rule="nonzero"/></clipPath><clipPath id="29f9cd9e5f"><path d="M 522 124 L 693 124 L 693 281 L 522 281 Z M 522 124 " clip-rule="nonzero"/></clipPath><clipPath id="7a9ac09e70"><path d="M 192.480469 -41.851562 L 787.132812 78.703125 L 617.257812 916.65625 L 22.605469 796.101562 Z M 192.480469 -41.851562 " clip-rule="nonzero"/></clipPath><clipPath id="34f64da869"><path d="M 192.480469 -41.851562 L 787.132812 78.703125 L 617.257812 916.65625 L 22.605469 796.101562 Z M 192.480469 -41.851562 " clip-rule="nonzero"/></clipPath><clipPath id="b6df55bcc3"><path d="M 192.480469 -41.851562 L 787.132812 78.703125 L 617.257812 916.65625 L 22.605469 796.101562 Z M 192.480469 -41.851562 " clip-rule="nonzero"/></clipPath><clipPath id="3e75e37adc"><path d="M 475 204 L 614 204 L 614 355 L 475 355 Z M 475 204 " clip-rule="nonzero"/></clipPath><clipPath id="674b271044"><path d="M 192.480469 -41.851562 L 787.132812 78.703125 L 617.257812 916.65625 L 22.605469 796.101562 Z M 192.480469 -41.851562 " clip-rule="nonzero"/></clipPath><clipPath id="d8ba3fb8d7"><path d="M 192.480469 -41.851562 L 787.132812 78.703125 L 617.257812 916.65625 L 22.605469 796.101562 Z M 192.480469 -41.851562 " clip-rule="nonzero"/></clipPath><clipPath id="6bf6147748"><path d="M 192.480469 -41.851562 L 787.132812 78.703125 L 617.257812 916.65625 L 22.605469 796.101562 Z M 192.480469 -41.851562 " clip-rule="nonzero"/></clipPath><clipPath id="9b237761ed"><path d="M 468 234 L 585 234 L 585 356 L 468 356 Z M 468 234 " clip-rule="nonzero"/></clipPath><clipPath id="38cc2119a2"><path d="M 192.480469 -41.851562 L 787.132812 78.703125 L 617.257812 916.65625 L 22.605469 796.101562 Z M 192.480469 -41.851562 " clip-rule="nonzero"/></clipPath><clipPath id="63f694be6c"><path d="M 192.480469 -41.851562 L 787.132812 78.703125 L 617.257812 916.65625 L 22.605469 796.101562 Z M 192.480469 -41.851562 " clip-rule="nonzero"/></clipPath><clipPath id="c75574ba8a"><path d="M 192.480469 -41.851562 L 787.132812 78.703125 L 617.257812 916.65625 L 22.605469 796.101562 Z M 192.480469 -41.851562 " clip-rule="nonzero"/></clipPath><clipPath id="ac4f07d83d"><path d="M 414 315 L 519 315 L 519 405 L 414 405 Z M 414 315 " clip-rule="nonzero"/></clipPath><clipPath id="52296c3b2f"><path d="M 192.480469 -41.851562 L 787.132812 78.703125 L 617.257812 916.65625 L 22.605469 796.101562 Z M 192.480469 -41.851562 " clip-rule="nonzero"/></clipPath><clipPath id="0a24e579a5"><path d="M 192.480469 -41.851562 L 787.132812 78.703125 L 617.257812 916.65625 L 22.605469 796.101562 Z M 192.480469 -41.851562 " clip-rule="nonzero"/></clipPath><clipPath id="703a9fc6d1"><path d="M 192.480469 -41.851562 L 787.132812 78.703125 L 617.257812 916.65625 L 22.605469 796.101562 Z M 192.480469 -41.851562 " clip-rule="nonzero"/></clipPath><clipPath id="c93ad7a467"><path d="M 422 294 L 521 294 L 521 364 L 422 364 Z M 422 294 " clip-rule="nonzero"/></clipPath><clipPath id="4a686a2d6c"><path d="M 192.480469 -41.851562 L 787.132812 78.703125 L 617.257812 916.65625 L 22.605469 796.101562 Z M 192.480469 -41.851562 " clip-rule="nonzero"/></clipPath><clipPath id="6400b5b334"><path d="M 192.480469 -41.851562 L 787.132812 78.703125 L 617.257812 916.65625 L 22.605469 796.101562 Z M 192.480469 -41.851562 " clip-rule="nonzero"/></clipPath><clipPath id="0dce0530de"><path d="M 192.480469 -41.851562 L 787.132812 78.703125 L 617.257812 916.65625 L 22.605469 796.101562 Z M 192.480469 -41.851562 " clip-rule="nonzero"/></clipPath><clipPath id="ee1975fcc2"><path d="M 387 359 L 583 359 L 583 478 L 387 478 Z M 387 359 " clip-rule="nonzero"/></clipPath><clipPath id="42a03d051f"><path d="M 192.480469 -41.851562 L 787.132812 78.703125 L 617.257812 916.65625 L 22.605469 796.101562 Z M 192.480469 -41.851562 " clip-rule="nonzero"/></clipPath><clipPath id="198b80d5e9"><path d="M 192.480469 -41.851562 L 787.132812 78.703125 L 617.257812 916.65625 L 22.605469 796.101562 Z M 192.480469 -41.851562 " clip-rule="nonzero"/></clipPath><clipPath id="8ce27881a8"><path d="M 192.480469 -41.851562 L 787.132812 78.703125 L 617.257812 916.65625 L 22.605469 796.101562 Z M 192.480469 -41.851562 " clip-rule="nonzero"/></clipPath><clipPath id="8bc140eefa"><path d="M 58 479 L 448 479 L 448 786 L 58 786 Z M 58 479 " clip-rule="nonzero"/></clipPath><clipPath id="22f613ae6f"><path d="M 192.480469 -41.851562 L 787.132812 78.703125 L 617.257812 916.65625 L 22.605469 796.101562 Z M 192.480469 -41.851562 " clip-rule="nonzero"/></clipPath><clipPath id="b0e7c3875d"><path d="M 192.480469 -41.851562 L 787.132812 78.703125 L 617.257812 916.65625 L 22.605469 796.101562 Z M 192.480469 -41.851562 " clip-rule="nonzero"/></clipPath><clipPath id="19c850897a"><path d="M 192.480469 -41.851562 L 787.132812 78.703125 L 617.257812 916.65625 L 22.605469 796.101562 Z M 192.480469 -41.851562 " clip-rule="nonzero"/></clipPath><clipPath id="4fec1e9d3a"><path d="M 619 292 L 690 292 L 690 337 L 619 337 Z M 619 292 " clip-rule="nonzero"/></clipPath><clipPath id="193d29ef3a"><path d="M 192.480469 -41.851562 L 787.132812 78.703125 L 617.257812 916.65625 L 22.605469 796.101562 Z M 192.480469 -41.851562 " clip-rule="nonzero"/></clipPath><clipPath id="984baa3425"><path d="M 192.480469 -41.851562 L 787.132812 78.703125 L 617.257812 916.65625 L 22.605469 796.101562 Z M 192.480469 -41.851562 " clip-rule="nonzero"/></clipPath><clipPath id="dbd3ef1add"><path d="M 192.480469 -41.851562 L 787.132812 78.703125 L 617.257812 916.65625 L 22.605469 796.101562 Z M 192.480469 -41.851562 " clip-rule="nonzero"/></clipPath><clipPath id="647dbb127e"><path d="M 546 52 L 759 52 L 759 265 L 546 265 Z M 546 52 " clip-rule="nonzero"/></clipPath><clipPath id="e27e826ba4"><path d="M 192.480469 -41.851562 L 787.132812 78.703125 L 617.257812 916.65625 L 22.605469 796.101562 Z M 192.480469 -41.851562 " clip-rule="nonzero"/></clipPath><clipPath id="47071374eb"><path d="M 192.480469 -41.851562 L 787.132812 78.703125 L 617.257812 916.65625 L 22.605469 796.101562 Z M 192.480469 -41.851562 " clip-rule="nonzero"/></clipPath><clipPath id="544e2296c7"><path d="M 192.480469 -41.851562 L 787.132812 78.703125 L 617.257812 916.65625 L 22.605469 796.101562 Z M 192.480469 -41.851562 " clip-rule="nonzero"/></clipPath><clipPath id="a3f27f639b"><path d="M 559.523438 32.558594 L 777.910156 76.832031 L 738.914062 269.1875 L 520.527344 224.914062 Z M 559.523438 32.558594 " clip-rule="nonzero"/></clipPath><clipPath id="a8f77c8f38"><path d="M 481 124 L 527 124 L 527 202 L 481 202 Z M 481 124 " clip-rule="nonzero"/></clipPath><clipPath id="63058f8a2b"><path d="M 192.480469 -41.851562 L 787.132812 78.703125 L 617.257812 916.65625 L 22.605469 796.101562 Z M 192.480469 -41.851562 " clip-rule="nonzero"/></clipPath><clipPath id="ada3604621"><path d="M 192.480469 -41.851562 L 787.132812 78.703125 L 617.257812 916.65625 L 22.605469 796.101562 Z M 192.480469 -41.851562 " clip-rule="nonzero"/></clipPath><clipPath id="ecb485eaee"><path d="M 192.480469 -41.851562 L 787.132812 78.703125 L 617.257812 916.65625 L 22.605469 796.101562 Z M 192.480469 -41.851562 " clip-rule="nonzero"/></clipPath><clipPath id="9345b97bad"><path d="M 528 101 L 538 101 L 538 114 L 528 114 Z M 528 101 " clip-rule="nonzero"/></clipPath><clipPath id="fb160029f3"><path d="M 192.480469 -41.851562 L 787.132812 78.703125 L 617.257812 916.65625 L 22.605469 796.101562 Z M 192.480469 -41.851562 " clip-rule="nonzero"/></clipPath><clipPath id="bbb0db3c37"><path d="M 192.480469 -41.851562 L 787.132812 78.703125 L 617.257812 916.65625 L 22.605469 796.101562 Z M 192.480469 -41.851562 " clip-rule="nonzero"/></clipPath><clipPath id="c066e9ce37"><path d="M 192.480469 -41.851562 L 787.132812 78.703125 L 617.257812 916.65625 L 22.605469 796.101562 Z M 192.480469 -41.851562 " clip-rule="nonzero"/></clipPath><clipPath id="1793c0e764"><path d="M 468 199 L 478 199 L 478 227 L 468 227 Z M 468 199 " clip-rule="nonzero"/></clipPath><clipPath id="f85f3cfbcc"><path d="M 192.480469 -41.851562 L 787.132812 78.703125 L 617.257812 916.65625 L 22.605469 796.101562 Z M 192.480469 -41.851562 " clip-rule="nonzero"/></clipPath><clipPath id="af9a3b11e5"><path d="M 192.480469 -41.851562 L 787.132812 78.703125 L 617.257812 916.65625 L 22.605469 796.101562 Z M 192.480469 -41.851562 " clip-rule="nonzero"/></clipPath><clipPath id="f00e095b28"><path d="M 192.480469 -41.851562 L 787.132812 78.703125 L 617.257812 916.65625 L 22.605469 796.101562 Z M 192.480469 -41.851562 " clip-rule="nonzero"/></clipPath><clipPath id="1e113ce0dc"><path d="M 347 234 L 466 234 L 466 370 L 347 370 Z M 347 234 " clip-rule="nonzero"/></clipPath><clipPath id="adf31f95d7"><path d="M 192.480469 -41.851562 L 787.132812 78.703125 L 617.257812 916.65625 L 22.605469 796.101562 Z M 192.480469 -41.851562 " clip-rule="nonzero"/></clipPath><clipPath id="acc8c95f8e"><path d="M 192.480469 -41.851562 L 787.132812 78.703125 L 617.257812 916.65625 L 22.605469 796.101562 Z M 192.480469 -41.851562 " clip-rule="nonzero"/></clipPath><clipPath id="2935af9f85"><path d="M 192.480469 -41.851562 L 787.132812 78.703125 L 617.257812 916.65625 L 22.605469 796.101562 Z M 192.480469 -41.851562 " clip-rule="nonzero"/></clipPath><clipPath id="d83b759178"><path d="M 41 370 L 351 370 L 351 703 L 41 703 Z M 41 370 " clip-rule="nonzero"/></clipPath><clipPath id="372f1028a7"><path d="M 192.480469 -41.851562 L 787.132812 78.703125 L 617.257812 916.65625 L 22.605469 796.101562 Z M 192.480469 -41.851562 " clip-rule="nonzero"/></clipPath><clipPath id="2c91106489"><path d="M 192.480469 -41.851562 L 787.132812 78.703125 L 617.257812 916.65625 L 22.605469 796.101562 Z M 192.480469 -41.851562 " clip-rule="nonzero"/></clipPath><clipPath id="5225068008"><path d="M 192.480469 -41.851562 L 787.132812 78.703125 L 617.257812 916.65625 L 22.605469 796.101562 Z M 192.480469 -41.851562 " clip-rule="nonzero"/></clipPath><clipPath id="0f98cd9b84"><path d="M 666 117 L 718 117 L 718 225 L 666 225 Z M 666 117 " clip-rule="nonzero"/></clipPath><clipPath id="bb6f7d717a"><path d="M 192.480469 -41.851562 L 787.132812 78.703125 L 617.257812 916.65625 L 22.605469 796.101562 Z M 192.480469 -41.851562 " clip-rule="nonzero"/></clipPath><clipPath id="eb9fa8b5cf"><path d="M 192.480469 -41.851562 L 787.132812 78.703125 L 617.257812 916.65625 L 22.605469 796.101562 Z M 192.480469 -41.851562 " clip-rule="nonzero"/></clipPath><clipPath id="d8c7383d53"><path d="M 192.480469 -41.851562 L 787.132812 78.703125 L 617.257812 916.65625 L 22.605469 796.101562 Z M 192.480469 -41.851562 " clip-rule="nonzero"/></clipPath><clipPath id="277794f281"><path d="M 685 117 L 730 117 L 730 214 L 685 214 Z M 685 117 " clip-rule="nonzero"/></clipPath><clipPath id="1615bfeb3b"><path d="M 192.480469 -41.851562 L 787.132812 78.703125 L 617.257812 916.65625 L 22.605469 796.101562 Z M 192.480469 -41.851562 " clip-rule="nonzero"/></clipPath><clipPath id="068ce817b9"><path d="M 192.480469 -41.851562 L 787.132812 78.703125 L 617.257812 916.65625 L 22.605469 796.101562 Z M 192.480469 -41.851562 " clip-rule="nonzero"/></clipPath><clipPath id="8a7a0eb9ef"><path d="M 192.480469 -41.851562 L 787.132812 78.703125 L 617.257812 916.65625 L 22.605469 796.101562 Z M 192.480469 -41.851562 " clip-rule="nonzero"/></clipPath><clipPath id="085d424d93"><path d="M 711 124 L 739 124 L 739 205 L 711 205 Z M 711 124 " clip-rule="nonzero"/></clipPath><clipPath id="4a44d5c983"><path d="M 192.480469 -41.851562 L 787.132812 78.703125 L 617.257812 916.65625 L 22.605469 796.101562 Z M 192.480469 -41.851562 " clip-rule="nonzero"/></clipPath><clipPath id="2ce70fac77"><path d="M 192.480469 -41.851562 L 787.132812 78.703125 L 617.257812 916.65625 L 22.605469 796.101562 Z M 192.480469 -41.851562 " clip-rule="nonzero"/></clipPath><clipPath id="4b2f1d5e54"><path d="M 192.480469 -41.851562 L 787.132812 78.703125 L 617.257812 916.65625 L 22.605469 796.101562 Z M 192.480469 -41.851562 " clip-rule="nonzero"/></clipPath><clipPath id="45ac8d9ade"><path d="M 725 131 L 744 131 L 744 203 L 725 203 Z M 725 131 " clip-rule="nonzero"/></clipPath><clipPath id="dadae28e7a"><path d="M 192.480469 -41.851562 L 787.132812 78.703125 L 617.257812 916.65625 L 22.605469 796.101562 Z M 192.480469 -41.851562 " clip-rule="nonzero"/></clipPath><clipPath id="f4cba336d0"><path d="M 192.480469 -41.851562 L 787.132812 78.703125 L 617.257812 916.65625 L 22.605469 796.101562 Z M 192.480469 -41.851562 " clip-rule="nonzero"/></clipPath><clipPath id="4a9502064e"><path d="M 192.480469 -41.851562 L 787.132812 78.703125 L 617.257812 916.65625 L 22.605469 796.101562 Z M 192.480469 -41.851562 " clip-rule="nonzero"/></clipPath><clipPath id="212cc55f4e"><path d="M 672 123 L 718 123 L 718 162 L 672 162 Z M 672 123 " clip-rule="nonzero"/></clipPath><clipPath id="bbd5e23c23"><path d="M 192.480469 -41.851562 L 787.132812 78.703125 L 617.257812 916.65625 L 22.605469 796.101562 Z M 192.480469 -41.851562 " clip-rule="nonzero"/></clipPath><clipPath id="bff3d7420a"><path d="M 192.480469 -41.851562 L 787.132812 78.703125 L 617.257812 916.65625 L 22.605469 796.101562 Z M 192.480469 -41.851562 " clip-rule="nonzero"/></clipPath><clipPath id="1d1c15003b"><path d="M 192.480469 -41.851562 L 787.132812 78.703125 L 617.257812 916.65625 L 22.605469 796.101562 Z M 192.480469 -41.851562 " clip-rule="nonzero"/></clipPath><clipPath id="d4189bd50f"><path d="M 683 128 L 728 128 L 728 171 L 683 171 Z M 683 128 " clip-rule="nonzero"/></clipPath><clipPath id="d7a7829fb5"><path d="M 192.480469 -41.851562 L 787.132812 78.703125 L 617.257812 916.65625 L 22.605469 796.101562 Z M 192.480469 -41.851562 " clip-rule="nonzero"/></clipPath><clipPath id="1c853d43c4"><path d="M 192.480469 -41.851562 L 787.132812 78.703125 L 617.257812 916.65625 L 22.605469 796.101562 Z M 192.480469 -41.851562 " clip-rule="nonzero"/></clipPath><clipPath id="94e8a562bc"><path d="M 192.480469 -41.851562 L 787.132812 78.703125 L 617.257812 916.65625 L 22.605469 796.101562 Z M 192.480469 -41.851562 " clip-rule="nonzero"/></clipPath><clipPath id="d27cb4b22b"><path d="M 678 145 L 733 145 L 733 185 L 678 185 Z M 678 145 " clip-rule="nonzero"/></clipPath><clipPath id="c3b8390e07"><path d="M 192.480469 -41.851562 L 787.132812 78.703125 L 617.257812 916.65625 L 22.605469 796.101562 Z M 192.480469 -41.851562 " clip-rule="nonzero"/></clipPath><clipPath id="2f2fcc2f3a"><path d="M 192.480469 -41.851562 L 787.132812 78.703125 L 617.257812 916.65625 L 22.605469 796.101562 Z M 192.480469 -41.851562 " clip-rule="nonzero"/></clipPath><clipPath id="0340ad0ac7"><path d="M 192.480469 -41.851562 L 787.132812 78.703125 L 617.257812 916.65625 L 22.605469 796.101562 Z M 192.480469 -41.851562 " clip-rule="nonzero"/></clipPath><clipPath id="b9748db1bf"><path d="M 668 117 L 699 117 L 699 152 L 668 152 Z M 668 117 " clip-rule="nonzero"/></clipPath><clipPath id="ba0d7484c5"><path d="M 192.480469 -41.851562 L 787.132812 78.703125 L 617.257812 916.65625 L 22.605469 796.101562 Z M 192.480469 -41.851562 " clip-rule="nonzero"/></clipPath><clipPath id="f2025f22a5"><path d="M 192.480469 -41.851562 L 787.132812 78.703125 L 617.257812 916.65625 L 22.605469 796.101562 Z M 192.480469 -41.851562 " clip-rule="nonzero"/></clipPath><clipPath id="0b26a0def2"><path d="M 192.480469 -41.851562 L 787.132812 78.703125 L 617.257812 916.65625 L 22.605469 796.101562 Z M 192.480469 -41.851562 " clip-rule="nonzero"/></clipPath><clipPath id="6ab5db41b3"><path d="M 640 120 L 706 120 L 706 192 L 640 192 Z M 640 120 " clip-rule="nonzero"/></clipPath><clipPath id="b531496868"><path d="M 192.480469 -41.851562 L 787.132812 78.703125 L 617.257812 916.65625 L 22.605469 796.101562 Z M 192.480469 -41.851562 " clip-rule="nonzero"/></clipPath><clipPath id="b56a403b5b"><path d="M 192.480469 -41.851562 L 787.132812 78.703125 L 617.257812 916.65625 L 22.605469 796.101562 Z M 192.480469 -41.851562 " clip-rule="nonzero"/></clipPath><clipPath id="22cdd55351"><path d="M 192.480469 -41.851562 L 787.132812 78.703125 L 617.257812 916.65625 L 22.605469 796.101562 Z M 192.480469 -41.851562 " clip-rule="nonzero"/></clipPath><clipPath id="ecc1d23e8f"><path d="M 623 124 L 687 124 L 687 181 L 623 181 Z M 623 124 " clip-rule="nonzero"/></clipPath><clipPath id="f2a9db3f01"><path d="M 192.480469 -41.851562 L 787.132812 78.703125 L 617.257812 916.65625 L 22.605469 796.101562 Z M 192.480469 -41.851562 " clip-rule="nonzero"/></clipPath><clipPath id="81c701b704"><path d="M 192.480469 -41.851562 L 787.132812 78.703125 L 617.257812 916.65625 L 22.605469 796.101562 Z M 192.480469 -41.851562 " clip-rule="nonzero"/></clipPath><clipPath id="d1222c6e4b"><path d="M 192.480469 -41.851562 L 787.132812 78.703125 L 617.257812 916.65625 L 22.605469 796.101562 Z M 192.480469 -41.851562 " clip-rule="nonzero"/></clipPath><clipPath id="69e7b9c426"><path d="M 644 124 L 675 124 L 675 158 L 644 158 Z M 644 124 " clip-rule="nonzero"/></clipPath><clipPath id="0506d65012"><path d="M 192.480469 -41.851562 L 787.132812 78.703125 L 617.257812 916.65625 L 22.605469 796.101562 Z M 192.480469 -41.851562 " clip-rule="nonzero"/></clipPath><clipPath id="6414364078"><path d="M 192.480469 -41.851562 L 787.132812 78.703125 L 617.257812 916.65625 L 22.605469 796.101562 Z M 192.480469 -41.851562 " clip-rule="nonzero"/></clipPath><clipPath id="1c0f5e3dba"><path d="M 192.480469 -41.851562 L 787.132812 78.703125 L 617.257812 916.65625 L 22.605469 796.101562 Z M 192.480469 -41.851562 " clip-rule="nonzero"/></clipPath><clipPath id="d20ece5456"><path d="M 644 114 L 672 114 L 672 143 L 644 143 Z M 644 114 " clip-rule="nonzero"/></clipPath><clipPath id="dd08ec0b44"><path d="M 192.480469 -41.851562 L 787.132812 78.703125 L 617.257812 916.65625 L 22.605469 796.101562 Z M 192.480469 -41.851562 " clip-rule="nonzero"/></clipPath><clipPath id="685ffa0f35"><path d="M 192.480469 -41.851562 L 787.132812 78.703125 L 617.257812 916.65625 L 22.605469 796.101562 Z M 192.480469 -41.851562 " clip-rule="nonzero"/></clipPath><clipPath id="d43fd6c971"><path d="M 192.480469 -41.851562 L 787.132812 78.703125 L 617.257812 916.65625 L 22.605469 796.101562 Z M 192.480469 -41.851562 " clip-rule="nonzero"/></clipPath><clipPath id="2247f39a44"><path d="M 616 136 L 675 136 L 675 168 L 616 168 Z M 616 136 " clip-rule="nonzero"/></clipPath><clipPath id="4e676501dc"><path d="M 192.480469 -41.851562 L 787.132812 78.703125 L 617.257812 916.65625 L 22.605469 796.101562 Z M 192.480469 -41.851562 " clip-rule="nonzero"/></clipPath><clipPath id="6c69fe8770"><path d="M 192.480469 -41.851562 L 787.132812 78.703125 L 617.257812 916.65625 L 22.605469 796.101562 Z M 192.480469 -41.851562 " clip-rule="nonzero"/></clipPath><clipPath id="9eacda028b"><path d="M 192.480469 -41.851562 L 787.132812 78.703125 L 617.257812 916.65625 L 22.605469 796.101562 Z M 192.480469 -41.851562 " clip-rule="nonzero"/></clipPath><clipPath id="f4ea9fe6a1"><path d="M 714 157 L 742 157 L 742 181 L 714 181 Z M 714 157 " clip-rule="nonzero"/></clipPath><clipPath id="77d72cad9b"><path d="M 192.480469 -41.851562 L 787.132812 78.703125 L 617.257812 916.65625 L 22.605469 796.101562 Z M 192.480469 -41.851562 " clip-rule="nonzero"/></clipPath><clipPath id="c5ea31cdf1"><path d="M 192.480469 -41.851562 L 787.132812 78.703125 L 617.257812 916.65625 L 22.605469 796.101562 Z M 192.480469 -41.851562 " clip-rule="nonzero"/></clipPath><clipPath id="b276a8d02f"><path d="M 192.480469 -41.851562 L 787.132812 78.703125 L 617.257812 916.65625 L 22.605469 796.101562 Z M 192.480469 -41.851562 " clip-rule="nonzero"/></clipPath><clipPath id="2273042b58"><path d="M 719 161 L 753 161 L 753 195 L 719 195 Z M 719 161 " clip-rule="nonzero"/></clipPath><clipPath id="0c6701cd2d"><path d="M 192.480469 -41.851562 L 787.132812 78.703125 L 617.257812 916.65625 L 22.605469 796.101562 Z M 192.480469 -41.851562 " clip-rule="nonzero"/></clipPath><clipPath id="4c2f900051"><path d="M 192.480469 -41.851562 L 787.132812 78.703125 L 617.257812 916.65625 L 22.605469 796.101562 Z M 192.480469 -41.851562 " clip-rule="nonzero"/></clipPath><clipPath id="1491024a11"><path d="M 192.480469 -41.851562 L 787.132812 78.703125 L 617.257812 916.65625 L 22.605469 796.101562 Z M 192.480469 -41.851562 " clip-rule="nonzero"/></clipPath></defs><g clip-path="url(#d97343978a)"><g clip-path="url(#92d91ed01f)"><g clip-path="url(#8e8c7894ee)"><g clip-path="url(#f2d7650f81)"><path fill="#000000" d="M 703.613281 277.996094 C 703.617188 278.097656 703.625 278.199219 703.632812 278.296875 C 703.625 278.199219 703.617188 278.097656 703.613281 277.996094 Z M 627.148438 151.644531 C 603.148438 127.085938 571.585938 101.660156 534.46875 104.222656 C 540.332031 105.5625 546.722656 108.375 552.789062 111.511719 C 552.699219 111.464844 552.609375 111.414062 552.519531 111.371094 C 609.242188 136.589844 650.257812 187.257812 684.632812 238 C 694.398438 257.203125 705.277344 269.941406 702.910156 281.46875 C 702.945312 283.8125 689.542969 296.003906 696.179688 291.625 C 746.320312 278.359375 640.6875 165.15625 627.148438 151.644531 " fill-opacity="1" fill-rule="nonzero"/></g></g></g></g><g clip-path="url(#29f9cd9e5f)"><g clip-path="url(#7a9ac09e70)"><g clip-path="url(#34f64da869)"><g clip-path="url(#b6df55bcc3)"><path fill="#000000" d="M 621.859375 173.5 C 596.820312 149.855469 553.769531 117.808594 522.808594 125.820312 C 546.949219 131.421875 565.941406 144.09375 587.058594 157.011719 C 631.179688 188.800781 665.882812 233.246094 692.539062 280.964844 C 686.601562 239.503906 640.789062 192.300781 621.859375 173.5 " fill-opacity="1" fill-rule="nonzero"/></g></g></g></g><g clip-path="url(#3e75e37adc)"><g clip-path="url(#674b271044)"><g clip-path="url(#d8ba3fb8d7)"><g clip-path="url(#6bf6147748)"><path fill="#000000" d="M 596.417969 352.039062 C 596.402344 352.054688 596.378906 352.074219 596.363281 352.085938 C 596.378906 352.074219 596.363281 352.085938 596.417969 352.039062 Z M 603.53125 344.285156 C 603.492188 344.339844 603.457031 344.394531 603.417969 344.445312 C 603.457031 344.394531 603.417969 344.445312 603.53125 344.285156 Z M 541.054688 234.847656 C 520.046875 215.191406 495.699219 201.828125 475.007812 205.136719 C 531.753906 224.34375 592.378906 299.269531 606.476562 339.15625 C 600.339844 352.511719 585.039062 358.238281 599.121094 352.554688 C 599.035156 352.59375 598.953125 352.636719 598.863281 352.679688 C 639.132812 340.464844 583.558594 280.355469 570.542969 265.699219 C 570.820312 266.019531 571.097656 266.34375 571.371094 266.671875 C 562.117188 255.707031 552.183594 244.90625 541.054688 234.847656 " fill-opacity="1" fill-rule="nonzero"/></g></g></g></g><g clip-path="url(#9b237761ed)"><g clip-path="url(#38cc2119a2)"><g clip-path="url(#63f694be6c)"><g clip-path="url(#c75574ba8a)"><path fill="#000000" d="M 532.8125 270.613281 C 511.824219 249.589844 491.835938 233.652344 468.824219 234.902344 C 518.441406 258.832031 554.40625 303.367188 581.800781 350.34375 C 582.828125 351.792969 584.976562 358.238281 584.335938 354.53125 C 578.105469 321.066406 557.253906 293.828125 532.8125 270.613281 " fill-opacity="1" fill-rule="nonzero"/></g></g></g></g><g clip-path="url(#ac4f07d83d)"><g clip-path="url(#52296c3b2f)"><g clip-path="url(#0a24e579a5)"><g clip-path="url(#703a9fc6d1)"><path fill="#000000" d="M 417.476562 378.304688 C 417.484375 378.332031 417.492188 378.351562 417.5 378.378906 C 417.488281 378.34375 417.480469 378.316406 417.46875 378.289062 C 417.472656 378.296875 417.46875 378.289062 417.476562 378.304688 Z M 417.109375 377.320312 C 417.117188 377.355469 417.128906 377.390625 417.148438 377.429688 C 417.128906 377.390625 417.117188 377.355469 417.109375 377.320312 Z M 518 315.578125 C 511.871094 339.105469 489.003906 352.203125 475.285156 371.820312 C 468.730469 378.601562 463.265625 388.261719 453.929688 392.890625 C 441.351562 392.542969 421.660156 393.875 417.5 378.378906 C 417.53125 378.457031 417.5625 378.539062 417.589844 378.617188 C 417.558594 378.523438 417.582031 378.59375 417.449219 378.238281 C 417.453125 378.253906 417.464844 378.273438 417.46875 378.289062 C 417.070312 377.226562 416.613281 375.984375 415.933594 374.15625 C 415.9375 374.171875 415.941406 374.183594 415.945312 374.191406 C 415.691406 373.523438 415.441406 372.855469 415.195312 372.1875 C 415.207031 372.222656 415.21875 372.265625 415.238281 372.300781 C 415.0625 371.832031 414.886719 371.367188 414.714844 370.898438 C 414.714844 370.921875 414.726562 370.941406 414.734375 370.957031 C 413.414062 371.058594 414.171875 390.207031 420.261719 394.15625 C 429.964844 402.210938 451.394531 408.054688 461.011719 401.914062 C 519.445312 341.632812 518.671875 333.332031 518 315.578125 " fill-opacity="1" fill-rule="nonzero"/></g></g></g></g><g clip-path="url(#c93ad7a467)"><g clip-path="url(#4a686a2d6c)"><g clip-path="url(#6400b5b334)"><g clip-path="url(#0dce0530de)"><path fill="#000000" d="M 513.039062 304.121094 C 512.96875 304.09375 512.910156 304.0625 512.851562 304.035156 C 512.910156 304.0625 512.851562 304.035156 513.039062 304.121094 Z M 513.746094 300.71875 C 485.453125 275.597656 431.292969 339.878906 424.9375 358.058594 C 424.976562 357.960938 425.023438 357.863281 425.066406 357.761719 C 424.433594 359.15625 423.3125 361.472656 422.277344 363.703125 C 426.066406 360.394531 429.347656 356.558594 433.503906 352.4375 C 478.453125 310.394531 493.835938 293.542969 514.757812 305.035156 C 517.074219 306.382812 518.324219 307.414062 520.601562 309.617188 C 519.074219 306.421875 517.097656 303.378906 513.746094 300.71875 " fill-opacity="1" fill-rule="nonzero"/></g></g></g></g><g clip-path="url(#ee1975fcc2)"><g clip-path="url(#42a03d051f)"><g clip-path="url(#198b80d5e9)"><g clip-path="url(#8ce27881a8)"><path fill="#000000" d="M 462.945312 465.148438 C 462.917969 465.136719 462.945312 465.148438 462.84375 465.117188 C 462.878906 465.128906 462.84375 465.117188 462.945312 465.148438 Z M 582.921875 359.800781 C 533.363281 381.332031 500.144531 426.542969 461.6875 463.429688 C 446.300781 433.273438 422.140625 403.398438 387.996094 392.914062 C 391.980469 395.8125 396.898438 399.566406 400.804688 403.109375 C 500.15625 499.796875 408.746094 511.078125 559.976562 381.863281 C 559.710938 382.113281 559.449219 382.367188 559.179688 382.617188 C 566.753906 375.46875 575.167969 367.996094 582.921875 359.800781 " fill-opacity="1" fill-rule="nonzero"/></g></g></g></g><g clip-path="url(#8bc140eefa)"><g clip-path="url(#22f613ae6f)"><g clip-path="url(#b0e7c3875d)"><g clip-path="url(#19c850897a)"><path fill="#000000" d="M 71.609375 734.289062 C 71.546875 734.246094 71.484375 734.199219 71.421875 734.152344 C 71.484375 734.199219 71.421875 734.152344 71.609375 734.289062 Z M 447.113281 479.625 C 429.410156 490.566406 413.566406 504.613281 398.386719 519.828125 C 355.097656 565.574219 311.640625 609.347656 263.714844 650.734375 C 96.414062 811.125 132.710938 773.53125 97.65625 754.441406 C 98.03125 754.726562 98.414062 755.019531 98.785156 755.3125 C 50.128906 718.003906 57.511719 718.777344 59.945312 726.089844 C 71.003906 747.609375 89.601562 762.15625 108.15625 777.355469 C 125.980469 791.488281 131.929688 786.316406 145.984375 772.410156 C 179.28125 742.261719 212.414062 713.09375 244.3125 681.234375 C 346.253906 586.625 435.339844 502.183594 447.113281 479.625 " fill-opacity="1" fill-rule="nonzero"/></g></g></g></g><g clip-path="url(#4fec1e9d3a)"><g clip-path="url(#193d29ef3a)"><g clip-path="url(#984baa3425)"><g clip-path="url(#dbd3ef1add)"><path fill="#000000" d="M 671.335938 305.980469 C 671.175781 306.066406 671.007812 306.148438 670.839844 306.234375 C 671.007812 306.148438 670.839844 306.234375 671.335938 305.980469 Z M 689.003906 292.554688 C 684.996094 295.546875 680.203125 298.96875 676.0625 302.988281 C 676.101562 302.949219 676.152344 302.90625 676.191406 302.867188 C 668.773438 308.4375 658.773438 311.269531 649.738281 315.746094 C 639.652344 320.964844 632.476562 334.125 619.375 334.894531 C 633.828125 340.480469 646.367188 326.957031 660.070312 322.378906 C 677.128906 314.679688 681.433594 307.308594 689.003906 292.554688 " fill-opacity="1" fill-rule="nonzero"/></g></g></g></g><g clip-path="url(#647dbb127e)"><g clip-path="url(#e27e826ba4)"><g clip-path="url(#47071374eb)"><g clip-path="url(#544e2296c7)"><g clip-path="url(#a3f27f639b)"><path fill="#000000" d="M 734.886719 101.203125 C 734.941406 101.273438 734.984375 101.339844 735.035156 101.417969 C 734.824219 101.105469 734.609375 100.792969 734.394531 100.484375 C 734.566406 100.722656 734.394531 100.484375 734.886719 101.203125 Z M 735.191406 101.644531 C 735.140625 101.570312 735.085938 101.492188 735.035156 101.417969 C 735.085938 101.492188 735.035156 101.417969 735.191406 101.644531 Z M 712.148438 78.277344 C 668.8125 41.234375 628.375 49.152344 582.25 68.011719 C 568.820312 75.71875 555.46875 92.878906 546.511719 98.945312 C 562.316406 95.753906 572.8125 84.265625 587.546875 77.347656 C 650.875 51.050781 685.117188 61.8125 724.472656 105.160156 C 767.773438 158.894531 739.636719 206.96875 718.128906 260.746094 C 717.441406 262.816406 714.339844 265.914062 718.253906 262.621094 C 740.1875 240.894531 751.582031 211.703125 756.59375 181.273438 C 763.886719 142.019531 743.800781 101.800781 712.148438 78.277344 " fill-opacity="1" fill-rule="nonzero"/></g></g></g></g></g><g clip-path="url(#a8f77c8f38)"><g clip-path="url(#63058f8a2b)"><g clip-path="url(#ada3604621)"><g clip-path="url(#ecb485eaee)"><path fill="#000000" d="M 526.59375 124.238281 C 502.714844 142.175781 479.878906 169.710938 481.089844 201.882812 C 490.949219 173.53125 513.578125 151.871094 526.59375 124.238281 " fill-opacity="1" fill-rule="nonzero"/></g></g></g></g><g clip-path="url(#9345b97bad)"><g clip-path="url(#fb160029f3)"><g clip-path="url(#bbb0db3c37)"><g clip-path="url(#c066e9ce37)"><path fill="#000000" d="M 537.363281 101.875 C 526.828125 108.566406 525.105469 121.886719 534.597656 107.335938 C 534.539062 107.4375 534.464844 107.539062 534.398438 107.636719 C 535.238281 106.363281 536.484375 104.164062 537.363281 101.875 " fill-opacity="1" fill-rule="nonzero"/></g></g></g></g><g clip-path="url(#1793c0e764)"><g clip-path="url(#f85f3cfbcc)"><g clip-path="url(#af9a3b11e5)"><g clip-path="url(#f00e095b28)"><path fill="#000000" d="M 476.929688 199.488281 C 471.792969 207.125 467.390625 215.976562 469.070312 226.328125 C 472.648438 218.429688 477.769531 209.34375 476.929688 199.488281 " fill-opacity="1" fill-rule="nonzero"/></g></g></g></g><g clip-path="url(#1e113ce0dc)"><g clip-path="url(#adf31f95d7)"><g clip-path="url(#acc8c95f8e)"><g clip-path="url(#2935af9f85)"><path fill="#000000" d="M 465.539062 234.636719 C 453.792969 246.164062 440.007812 256.109375 429.578125 270.1875 C 386.738281 325.609375 375.089844 328.171875 347.898438 369.089844 C 396.207031 336.46875 447.605469 261.640625 465.539062 234.636719 " fill-opacity="1" fill-rule="nonzero"/></g></g></g></g><g clip-path="url(#d83b759178)"><g clip-path="url(#372f1028a7)"><g clip-path="url(#2c91106489)"><g clip-path="url(#5225068008)"><path fill="#000000" d="M 45.296875 699.597656 C 45.25 699.640625 45.199219 699.683594 45.152344 699.726562 C 45.199219 699.683594 45.152344 699.726562 45.296875 699.597656 Z M 350.6875 370.957031 C 299.054688 408.652344 198.882812 522.933594 187.6875 533.011719 C 135.011719 586.472656 46.914062 678.332031 41.792969 702.957031 C 57.152344 689.378906 71.351562 676.535156 84.023438 660.09375 C 143.589844 587.050781 168.53125 567.792969 192.386719 541.785156 C 277.355469 448.144531 317.539062 416.726562 350.6875 370.957031 " fill-opacity="1" fill-rule="nonzero"/></g></g></g></g><g clip-path="url(#0f98cd9b84)"><g clip-path="url(#bb6f7d717a)"><g clip-path="url(#eb9fa8b5cf)"><g clip-path="url(#d8c7383d53)"><path fill="#000000" d="M 673.90625 120.984375 C 673.871094 120.984375 673.835938 120.976562 673.804688 120.972656 C 673.835938 120.976562 673.804688 120.972656 673.90625 120.984375 Z M 684.996094 124.546875 C 679.683594 120.152344 672.734375 122.746094 666.804688 117.757812 C 667.605469 118.832031 667.988281 119.84375 669.996094 121.507812 C 695.8125 131.808594 672.917969 133.664062 696.65625 146.789062 C 702.367188 157.90625 694.988281 156.3125 706.605469 171.296875 C 701.398438 206.804688 710.347656 180.746094 711.414062 211.523438 C 711.25 213.035156 716.34375 216.945312 713.53125 224.027344 C 716.894531 220.003906 716.285156 217.136719 715.027344 209.804688 C 715.484375 206.773438 718.160156 204.941406 716.585938 199.71875 C 714.40625 190.21875 708.890625 190.847656 712.695312 178.921875 C 716.613281 157.34375 706.734375 173.464844 704.417969 147.445312 C 703.316406 139.746094 694.457031 139.910156 690.484375 133.746094 C 689.425781 130.871094 688.375 127.164062 684.996094 124.546875 " fill-opacity="1" fill-rule="nonzero"/></g></g></g></g><g clip-path="url(#277794f281)"><g clip-path="url(#1615bfeb3b)"><g clip-path="url(#068ce817b9)"><g clip-path="url(#8a7a0eb9ef)"><path fill="#000000" d="M 698.988281 123.328125 C 696.4375 122.496094 678.78125 113.375 687.65625 119.671875 C 699.355469 129.71875 695.121094 121.46875 700.558594 137.117188 C 721.71875 153.871094 699.175781 152.25 721.21875 175.074219 C 724.691406 181.992188 717.273438 197.53125 726.851562 212.082031 C 728.660156 217.851562 724.402344 195.839844 725.8125 192.683594 C 726.625 186.890625 731.945312 179.765625 727.089844 172.28125 C 706.078125 150.398438 728.171875 147.617188 705.65625 133.910156 C 702.890625 131.921875 704.53125 126.554688 698.988281 123.328125 " fill-opacity="1" fill-rule="nonzero"/></g></g></g></g><g clip-path="url(#085d424d93)"><g clip-path="url(#4a44d5c983)"><g clip-path="url(#2ce70fac77)"><g clip-path="url(#4b2f1d5e54)"><path fill="#000000" d="M 734.089844 197.410156 C 734.089844 197.4375 734.085938 197.46875 734.078125 197.492188 C 734.085938 197.46875 734.089844 197.4375 734.089844 197.410156 Z M 711.019531 124.195312 C 719.300781 131.03125 708.601562 139.734375 723.203125 154.945312 C 722.863281 163.566406 722.84375 172.414062 731.285156 181.792969 C 731.257812 181.761719 731.230469 181.726562 731.210938 181.695312 C 736.808594 187.929688 729.511719 196.566406 733.945312 204.410156 C 733.929688 203.964844 733.9375 203.675781 733.925781 202.3125 C 734.867188 184.210938 744.84375 197.261719 729.664062 165.339844 C 730.539062 152.015625 731.476562 154.625 720.464844 142.539062 C 717.304688 136.527344 719.082031 127.371094 711.019531 124.195312 " fill-opacity="1" fill-rule="nonzero"/></g></g></g></g><g clip-path="url(#45ac8d9ade)"><g clip-path="url(#dadae28e7a)"><g clip-path="url(#f4cba336d0)"><g clip-path="url(#4a9502064e)"><path fill="#000000" d="M 730.878906 145.472656 C 730.917969 145.574219 730.957031 145.671875 730.996094 145.773438 C 730.957031 145.671875 730.917969 145.574219 730.878906 145.472656 Z M 725.367188 131.054688 C 729.578125 165.777344 728.1875 143.84375 735.382812 164.003906 C 735.375 163.96875 735.375 163.9375 735.371094 163.902344 C 731.96875 192.214844 740.339844 174.007812 739.730469 202.167969 C 747.871094 179.347656 737.84375 193.03125 741.667969 163.007812 C 741.539062 154.734375 732.816406 152.492188 730.640625 144.574219 C 729.238281 139.933594 729.152344 135.332031 725.367188 131.054688 " fill-opacity="1" fill-rule="nonzero"/></g></g></g></g><g clip-path="url(#212cc55f4e)"><g clip-path="url(#bbd5e23c23)"><g clip-path="url(#bff3d7420a)"><g clip-path="url(#1d1c15003b)"><path fill="#000000" d="M 711.621094 128.097656 C 711.570312 128.132812 711.523438 128.171875 711.476562 128.207031 C 711.523438 128.171875 711.476562 128.207031 711.621094 128.097656 Z M 717.414062 123.363281 C 702.054688 135.015625 687.265625 148.285156 672.113281 161.464844 C 688.605469 154.191406 709.074219 139.699219 717.414062 123.363281 " fill-opacity="1" fill-rule="nonzero"/></g></g></g></g><g clip-path="url(#d4189bd50f)"><g clip-path="url(#d7a7829fb5)"><g clip-path="url(#1c853d43c4)"><g clip-path="url(#94e8a562bc)"><path fill="#000000" d="M 700.738281 151.90625 C 700.667969 152 700.589844 152.089844 700.511719 152.1875 C 700.589844 152.089844 700.511719 152.1875 700.738281 151.90625 Z M 727.523438 128.320312 C 715.820312 137.140625 704.25 146.910156 694.324219 158.90625 C 657.097656 194.335938 728.226562 137.425781 727.523438 128.320312 " fill-opacity="1" fill-rule="nonzero"/></g></g></g></g><g clip-path="url(#d27cb4b22b)"><g clip-path="url(#c3b8390e07)"><g clip-path="url(#2f2fcc2f3a)"><g clip-path="url(#0340ad0ac7)"><path fill="#000000" d="M 732.796875 145.992188 C 714.667969 158.152344 698.941406 173.890625 678.945312 184.996094 C 700.195312 178.21875 720.054688 165.8125 732.796875 145.992188 " fill-opacity="1" fill-rule="nonzero"/></g></g></g></g><g clip-path="url(#b9748db1bf)"><g clip-path="url(#ba0d7484c5)"><g clip-path="url(#f2025f22a5)"><g clip-path="url(#0b26a0def2)"><path fill="#000000" d="M 698.683594 117.894531 C 688.359375 128.371094 676.789062 138.488281 668.777344 151.820312 C 679.667969 142.050781 694.246094 133.371094 698.683594 117.894531 " fill-opacity="1" fill-rule="nonzero"/></g></g></g></g><g clip-path="url(#6ab5db41b3)"><g clip-path="url(#b531496868)"><g clip-path="url(#b56a403b5b)"><g clip-path="url(#22cdd55351)"><path fill="#000000" d="M 662.449219 131.632812 C 662.582031 131.816406 662.722656 132.003906 662.855469 132.195312 C 662.722656 132.003906 662.582031 131.816406 662.449219 131.632812 Z M 677.828125 135.144531 C 648.402344 113.554688 658.734375 125.128906 640.960938 120.175781 C 644.890625 127.046875 655.671875 121.054688 662.378906 131.53125 C 662.332031 131.46875 662.285156 131.402344 662.238281 131.339844 C 669.320312 141.375 673.808594 134.480469 681.398438 153.992188 C 702.839844 164.03125 684.980469 179.566406 705.015625 191.324219 C 689.503906 176.367188 709.984375 161.007812 686.542969 149.144531 C 685.140625 148.664062 683.925781 138.84375 677.828125 135.144531 " fill-opacity="1" fill-rule="nonzero"/></g></g></g></g><g clip-path="url(#ecc1d23e8f)"><g clip-path="url(#f2a9db3f01)"><g clip-path="url(#81c701b704)"><g clip-path="url(#d1222c6e4b)"><path fill="#000000" d="M 625.453125 125.363281 C 625.429688 125.351562 625.414062 125.332031 625.398438 125.316406 C 625.414062 125.332031 625.398438 125.316406 625.453125 125.363281 Z M 667.679688 141.160156 C 663.8125 137.800781 657.636719 138.070312 652.890625 134.769531 C 639.320312 121.742188 634.609375 131.929688 623.777344 124.226562 C 626.546875 131.898438 635.148438 129.300781 641.375 133.210938 C 647.675781 136.761719 648.6875 142.957031 659.90625 144.496094 C 667.960938 146.390625 665.242188 152.472656 671.519531 157.910156 C 683.65625 163.210938 679.816406 172.582031 686.058594 180.167969 C 686.0625 180.179688 686.070312 180.1875 686.066406 180.195312 C 683.328125 172.578125 687.894531 160.449219 674.515625 151.878906 C 672.980469 149.847656 672.8125 144.433594 667.679688 141.160156 " fill-opacity="1" fill-rule="nonzero"/></g></g></g></g><g clip-path="url(#69e7b9c426)"><g clip-path="url(#0506d65012)"><g clip-path="url(#6414364078)"><g clip-path="url(#1c0f5e3dba)"><path fill="#000000" d="M 674.742188 124.921875 C 664.164062 134.878906 652.78125 144.835938 644.179688 157.667969 C 655.351562 148.558594 669.773438 140 674.742188 124.921875 " fill-opacity="1" fill-rule="nonzero"/></g></g></g></g><g clip-path="url(#d20ece5456)"><g clip-path="url(#dd08ec0b44)"><g clip-path="url(#685ffa0f35)"><g clip-path="url(#d43fd6c971)"><path fill="#000000" d="M 671.34375 114.035156 C 662.339844 122.839844 651.046875 131.167969 644.277344 142.976562 C 645.621094 141.921875 646.46875 141.296875 648.6875 139.589844 C 658.34375 133.226562 667.441406 126.101562 671.34375 114.035156 " fill-opacity="1" fill-rule="nonzero"/></g></g></g></g><g clip-path="url(#2247f39a44)"><g clip-path="url(#4e676501dc)"><g clip-path="url(#6c69fe8770)"><g clip-path="url(#9eacda028b)"><path fill="#000000" d="M 655.285156 149.769531 C 636.925781 143.035156 639.351562 131.253906 617.925781 139.578125 C 617.980469 139.582031 618.03125 139.585938 618.089844 139.59375 C 618.011719 139.542969 617.496094 139.664062 616.976562 139.242188 C 617 139.265625 617.023438 139.296875 617.046875 139.320312 C 616.960938 139.121094 616.761719 139.230469 616.546875 138.242188 C 616.550781 138.253906 616.554688 138.269531 616.554688 138.28125 C 616.519531 138.085938 616.488281 137.902344 616.453125 137.710938 C 616.453125 137.714844 616.453125 137.714844 616.449219 137.722656 C 614.820312 144.558594 627.148438 137.53125 633.859375 142.960938 C 639.605469 148.738281 645.835938 154.085938 654.890625 156.019531 C 660.800781 160.800781 665.632812 166.394531 674.101562 167.5 C 665.804688 164.0625 663.28125 154.464844 655.285156 149.769531 " fill-opacity="1" fill-rule="nonzero"/></g></g></g></g><g clip-path="url(#f4ea9fe6a1)"><g clip-path="url(#77d72cad9b)"><g clip-path="url(#c5ea31cdf1)"><g clip-path="url(#b276a8d02f)"><path fill="#000000" d="M 741.234375 157.667969 C 735.203125 167.589844 721.253906 169.972656 714.648438 180.425781 C 723.929688 174.472656 740.140625 171.96875 741.234375 157.667969 " fill-opacity="1" fill-rule="nonzero"/></g></g></g></g><g clip-path="url(#2273042b58)"><g clip-path="url(#0c6701cd2d)"><g clip-path="url(#4c2f900051)"><g clip-path="url(#1491024a11)"><path fill="#000000" d="M 752.109375 161.804688 C 748.609375 170.359375 730.074219 173.699219 719.746094 194.757812 C 727.792969 185.859375 752.1875 174.582031 752.109375 161.804688 " fill-opacity="1" fill-rule="nonzero"/></g></g></g></g></svg>