<?xml version="1.0" encoding="UTF-8" standalone="no"?>
<!-- Created with Inkscape (http://www.inkscape.org/) -->

<svg
   width="164.02225mm"
   height="71.494347mm"
   viewBox="0 0 164.02225 71.494347"
   version="1.1"
   id="svg1"
   xmlns:inkscape="http://www.inkscape.org/namespaces/inkscape"
   xmlns:sodipodi="http://sodipodi.sourceforge.net/DTD/sodipodi-0.dtd"
   xmlns="http://www.w3.org/2000/svg"
   xmlns:svg="http://www.w3.org/2000/svg">
  <sodipodi:namedview
     id="namedview1"
     pagecolor="#ffffff"
     bordercolor="#000000"
     borderopacity="0.25"
     inkscape:showpageshadow="2"
     inkscape:pageopacity="0.0"
     inkscape:pagecheckerboard="0"
     inkscape:deskcolor="#d1d1d1"
     inkscape:document-units="mm" />
  <defs
     id="defs1" />
  <g
     inkscape:label="Layer 1"
     inkscape:groupmode="layer"
     id="layer1"
     transform="translate(-14.957614,-103.09169)">
    <path
       class="st0"
       d="m 178.37599,157.02391 c -0.57868,1.00643 -9.63652,17.56213 -44.78592,17.56213 -24.43099,0 -54.598619,-7.92561 -83.633997,-7.92561 -13.637072,0 -24.707758,0.65417 -33.715267,3.24573 -0.603853,0.17613 -1.283192,0 -1.283192,-0.50323 0,-0.50321 0.603855,-0.83028 1.132227,-1.13222 6.9695,-3.57281 21.00914,-8.35331 39.175122,-8.35331 33.08625,0 59.077197,6.26498 83.483017,6.26498 26.56965,0 37.8668,-9.78748 38.74739,-10.51716 1.13224,-0.93092 1.4845,-0.30191 1.4845,0 -0.0503,0.40258 -0.35226,0.95612 -0.60388,1.35869 z"
       id="path19"
       inkscape:connector-curvature="0"
       style="display:inline;fill:#e6007d;fill-opacity:1;stroke-width:0.251608" />
    <path
       id="path10"
       style="display:inline;fill:#e6007d;fill-opacity:1;stroke-width:0.427849"
       d="m 33.238633,111.33251 c -5.170231,0 -14.221826,1.82088 -14.221826,1.82088 0,0 0.134039,3.34072 0.526455,4.95452 0.29655,1.21953 1.365443,3.50888 1.365443,3.50888 0,0 5.813609,-1.61531 10.016028,-1.61531 2.943672,0 8.927074,-0.26984 8.43332,7.03445 0,0 -26.378016,-2.75515 -23.670451,17.25689 1.190063,8.79594 9.39307,10.57194 17.729022,10.97116 5.33535,0.25552 15.877231,-2.16598 15.877231,-2.16598 v -26.89186 c 0,-8.2146 -5.578531,-14.87363 -16.055222,-14.87363 z m 1.332015,23.68382 c 2.620486,0.007 4.787405,0.44874 4.787405,0.44874 v 10.92458 c 0,0 -14.407381,3.22305 -13.575005,-5.84804 0.422926,-4.60896 4.95766,-5.53405 8.7876,-5.52528 z"
       sodipodi:nodetypes="scscscsscsssccss" />
    <path
       d="m 63.983472,135.75688 c -10.358825,-4.43942 -10.551491,-10.97232 -8.262429,-16.76753 1.400969,-3.54684 7.371117,-7.15023 12.227018,-7.53395 4.99706,-0.46339 10.652019,1.06843 15.354375,2.83239 -0.244802,2.90038 -3.275669,5.37166 -5.749389,7.03911 -3.850048,-1.07534 -6.705598,-1.58368 -10.23993,-0.73436 -2.837933,0.68194 -2.946141,3.67838 -1.710528,5.00726 1.224037,1.31644 5.166747,2.64251 7.386604,3.41604 3.506625,1.04262 7.411233,2.53328 9.480624,5.88013 1.899588,3.246 2.160275,6.80093 1.13814,10.38585 -1.539928,5.17324 -6.282271,8.47504 -11.200598,9.61143 -5.170224,1.1165 -10.907592,0.74432 -16.011701,-0.71643 -1.011554,-0.28948 -3.012068,-0.99965 -3.012068,-0.99965 0.287774,-3.7092 2.514807,-8.5481 2.514807,-8.5481 0,0 8.953104,2.75387 13.342682,1.7776 2.085674,-0.44103 4.888279,-1.54201 4.473766,-4.699 -0.495001,-3.76986 -6.236583,-4.45305 -9.731373,-5.95079 z"
       id="text12"
       style="font-weight:bold;font-size:49.406px;font-family:Aller;-inkscape-font-specification:'Aller Bold';letter-spacing:-20.5859px;display:inline;fill:#e6007d;fill-opacity:1;stroke-width:6.65773"
       aria-label="s"
       sodipodi:nodetypes="sscccssccccscccss" />
    <path
       style="fill:#e6007d;fill-opacity:1;stroke-width:0.427849"
       d="m 100.8301,103.09169 h -2.399783 l -14.303655,15.57329 0.962144,2.67676 h 5.676369 v 23.42508 c 0,5.69764 5.031124,10.04893 9.953595,10.44899 4.60914,0.3746 7.62324,0.22018 11.20493,-0.73953 0.56894,-1.89823 -1.27051,-8.34954 -1.27051,-8.34954 0,0 -5.66181,1.67351 -7.96006,0.34259 -1.16834,-0.67659 -1.86303,-2.04209 -1.86303,-3.59642 V 121.3418 h 9.72936 c 0.73114,-0.48381 0.65657,-8.10082 -0.034,-8.37953 h -9.69548 z"
       id="path18"
       sodipodi:nodetypes="cccccssccacccccc" />
    <path
       style="display:inline;fill:#e6007d;fill-opacity:1;stroke-width:0.427849"
       d="m 114.67248,154.86508 c 0,0 5.23297,0.8674 10.15536,0 v -22.6951 c 0,-12.58014 13.05215,-9.71705 13.05215,-9.71705 0.62929,-2.66309 0.55045,-6.9971 0.0749,-9.49073 0,0 -6.56641,-0.74099 -9.88666,1.14716 -1.52956,0.86985 -4.01742,3.39972 -4.01742,3.39972 l -0.44089,-4.19056 c 0,0 -4.91462,-1.18096 -8.93734,-0.10219 z"
       id="path20"
       sodipodi:nodetypes="ccsccscccc" />
    <path
       id="path21"
       style="fill:#e6007d;fill-opacity:1;stroke-width:0.446693"
       d="m 158.22924,112.46816 c -14.67107,0 -19.99946,9.79863 -19.99946,21.88551 0,12.08687 6.1678,21.88468 19.99946,21.88468 13.16653,0 19.99947,-9.79781 19.99947,-21.88468 0,-12.08688 -7.78105,-21.88551 -19.99947,-21.88551 z m -0.19553,8.34138 c 6.64397,0 9.32662,6.06806 9.32662,13.55332 0,7.48527 -2.51422,13.55332 -9.32662,13.5533 -6.82555,-1e-5 -9.32663,-6.06805 -9.32663,-13.5533 0,-7.48526 1.83424,-13.55332 9.32663,-13.55332 z" />
  </g>
</svg>